<svg
   width="275"
   height="80"
   viewBox="0 0 1100 320"
   version="1.1"
   id="svg5"
   xml:space="preserve"
   xmlns="http://www.w3.org/2000/svg"
   xmlns:svg="http://www.w3.org/2000/svg"><defs
     id="defs2" /><g
     id="layer1"><path
       style="fill:#1486c8;fill-opacity:1;stroke-width:0.264583"
       d="m 118.11149,27.685963 c 0,0 -10.78138,0.784891 -11.36152,6.689052 -0.58014,5.904159 -3.94571,11.658772 -3.95839,33.182023 -0.0127,21.523248 0.7084,35.227772 -2.44932,53.044682 -3.157713,17.81691 -9.749356,65.81674 -17.908487,87.05618 -8.159131,21.23943 -18.574599,33.24993 -18.574599,33.24993 0,0 -9.039514,9.49526 -13.991857,10.75146 -4.952344,1.2562 -6.836918,1.4921 -8.607116,0.0518 -1.770197,-1.44029 -10.214916,-9.67024 -10.765345,-14.61998 -0.550429,-4.94973 -2.026274,-14.12714 -3.67565,-16.00764 -1.649372,-1.8805 -5.829601,-3.40132 -7.328424,-2.71857 -1.498822,0.68276 -8.537596,3.1711 -9.6242595,6.66604 -1.0866636,3.49494 -0.4248719,7.37875 -0.095388,8.32535 1.3808665,3.96722 4.9522625,17.12123 15.4666825,27.70447 5.979618,5.23631 11.510331,7.95622 18.013793,9.03368 3.368256,0.54673 8.787653,0.72384 14.899304,-1.20343 10.173618,-3.20818 22.052102,-18.96556 23.775024,-21.58334 1.07786,-1.63768 7.124133,-8.52234 14.210593,-24.13912 4.117449,-9.07382 9.471569,-25.13408 10.586339,-32.18868 2.70566,-17.12222 7.5853,-38.70181 9.75631,-60.29871 2.17101,-21.5969 1.51215,-34.869604 4.50643,-49.485883 2.99428,-14.616277 13.52843,25.334053 13.52843,25.334053 l 16.43176,63.98904 c 0,0 5.88385,23.08032 5.91585,29.68304 0.032,6.60272 -0.51606,21.8951 0.032,29.18519 0.54805,7.29009 -0.0427,18.81003 1.54112,24.77751 1.58378,5.96748 3.58379,10.54913 6.07963,10.57376 2.49584,0.0246 8.72431,0.90247 10.52592,-1.1891 1.80161,-2.09159 5.64809,-3.43636 8.64772,-18.28291 2.99962,-14.84657 10.05221,-46.21278 10.43686,-52.81294 0.38466,-6.60015 6.33603,-50.72012 15.3532,-83.36916 9.01717,-32.649033 24.43936,-74.556292 24.43936,-74.556292 0,0 2.01945,-5.33051 -1.52029,-9.642831 -3.53974,-4.312322 -8.0924,-3.949623 -8.0924,-3.949623 0,0 -6.94198,0.902767 -8.5853,5.149882 -1.64332,4.247114 -9.54073,24.712606 -10.38972,28.774195 -0.84898,4.061587 -13.45851,51.007359 -13.45851,51.007359 0,0 -10.14498,32.41552 -11.27018,44.19914 -1.12519,11.78361 -3.94854,33.9207 -3.94854,33.9207 0,0 -1.21608,6.22718 -2.745,-0.74906 -1.52892,-6.97624 -16.22066,-70.02561 -16.22066,-70.02561 0,0 -17.15093,-54.661996 -22.17036,-66.251862 C 130.49708,35.369894 120.54685,26.459 118.11149,27.685963 Z"
       id="path305" /><path
       style="fill:#1486c8;fill-opacity:1;stroke-width:0.264583"
       d="m 249.49717,133.14169 c 0,0 -33.22414,6.36262 -43.35463,44.97269 -6.86425,26.16154 19.21304,43.32646 35.85137,53.26798 9.55472,5.8852 19.25443,8.08013 28.04366,8.31436 13.24265,0.2613 32.88121,0.89273 50.03301,-1.99811 27.74029,-4.67547 10.73394,-22.59206 2.57969,-18.28005 -5.83427,3.08519 -27.64355,5.15221 -42.55214,5.39501 -12.92748,0.36878 -20.03888,-2.59123 -29.39961,-7.80443 -12.38878,-6.95815 -26.8288,-17.79246 -28.10302,-25.52577 -1.99687,-12.1191 4.43327,-27.79414 14.08775,-33.51299 9.65447,-5.71884 28.60414,-14.63159 40.72467,-1.60825 12.12054,13.02334 -20.99202,15.06757 -20.99202,15.06757 l -21.09965,0.70632 c 0,0 -7.00029,0.76946 -7.31025,8.72356 -0.30996,7.95411 5.00509,8.80268 5.00509,8.80268 l 21.44023,0.2634 c 0,0 40.98962,-2.85083 41.59228,-26.26468 0.6027,-23.41385 -15.29767,-27.95859 -15.29767,-27.95859 0,0 -13.35407,-6.17145 -31.24876,-2.5607 z"
       id="path5520" /><path
       style="fill:#4d2b15;fill-opacity:1;stroke-width:0.264583"
       d="m 222.90027,116.31421 c 0,0 3.12534,11.97949 5.07692,13.06258 1.95158,1.08309 3.21308,0.71598 3.21308,0.71598 0,0 2.00752,-0.54626 -0.22674,-6.2597 -2.23425,-5.71343 -3.95867,-9.63196 -3.95867,-9.63196 0,0 -0.9301,-2.41444 -2.44151,-1.58375 -1.51141,0.83069 -1.74084,1.06403 -1.66308,3.69685 z"
       id="path5545" /><path
       style="fill:#4d2b15;fill-opacity:1;stroke-width:0.346929"
       d="m 238.85304,104.59654 c 0,0 3.68049,17.48989 5.97873,19.07119 2.29823,1.58129 3.78382,1.04531 3.78382,1.04531 0,0 2.36411,-0.79753 -0.26702,-9.13906 -2.63112,-8.34153 -4.66185,-14.06253 -4.66185,-14.06253 0,0 -1.09531,-3.525042 -2.87519,-2.312246 -1.77988,1.212796 -2.05007,1.553466 -1.95849,5.397336 z"
       id="path5545-6" /><path
       style="fill:#4d2b15;fill-opacity:1;stroke-width:0.264583"
       d="m 261.51788,94.931431 c 0,0 -2.53412,4.711028 -2.32864,14.077049 0.20549,9.36602 -0.24928,11.21714 0.0967,12.42446 0.34601,1.20731 0.7816,1.94617 1.40923,2.09052 0.62762,0.14435 1.68556,0.29135 2.28791,-0.75146 0.60236,-1.04281 1.54709,-4.92116 1.56828,-7.29585 0.0212,-2.37469 1.7103,-17.623786 1.20396,-19.164875 -0.50636,-1.541087 -1.09976,-3.768751 -2.33693,-3.688702 -1.23716,0.08005 -1.90053,2.308858 -1.90053,2.308858 z"
       id="path5684" /><path
       style="fill:#4d2b15;fill-opacity:1;stroke-width:0.264583"
       d="m 282.28974,102.62668 c -0.22688,0.28904 -3.39212,4.37972 -5.26158,8.98879 -1.86947,4.60907 -1.40497,11.50109 -1.40497,11.50109 0,0 -0.0122,1.72792 1.00962,2.10088 1.02175,0.37297 2.31032,-2.0153 2.31032,-2.0153 0,0 1.02264,-3.68476 1.15263,-6.15203 0.12999,-2.46728 4.74046,-11.40744 4.74046,-11.40744 0,0 0.44574,-0.80604 1.37081,-2.2357 0.92506,-1.42966 -0.74174,-2.22342 -0.74174,-2.22342 0,0 -1.59025,-0.85761 -3.17555,1.44313 z"
       id="path5686" /><path
       style="fill:#4d2b15;fill-opacity:1;stroke-width:0.264583"
       d="m 295.99537,114.71863 c -9.95283,9.85807 -8.4463,7.77299 -9.20629,8.95797 -0.75999,1.18497 -1.17866,2.24641 -0.97991,3.07244 0.19873,0.82603 0.56835,0.61958 0.56835,0.61958 0,0 0.69342,0.31357 5.67391,-4.43924 4.9805,-4.7528 6.89179,-6.72826 7.0266,-7.49882 0.1348,-0.77057 0.10025,-1.29379 -0.30157,-1.35396 -0.40183,-0.0602 -1.14973,-0.57939 -2.78109,0.64203 z"
       id="path5688" /><path
       style="fill:#1486c8;fill-opacity:1;stroke-width:0.264583"
       d="m 302.36398,149.67099 49.36471,77.33057 c 0,0 10.64443,11.45468 18.09957,1.06407 7.45516,-10.39062 55.48227,-82.5698 55.48227,-82.5698 0,0 3.16744,-8.84738 -2.51261,-11.45007 -5.68008,-2.6027 -11.68914,-3.41336 -15.90051,3.13558 -4.21137,6.54895 -40.616,65.56152 -40.616,65.56152 0,0 -1.83221,4.14844 -5.35609,1.34253 -3.52391,-2.80591 -42.33032,-64.41676 -42.33032,-64.41676 0,0 -4.28262,-11.02581 -12.97771,-6.21924 -8.69505,4.80657 -3.25331,16.2216 -3.25331,16.2216 z"
       id="path6271" /><path
       style="fill:#1486c8;fill-opacity:1;stroke-width:0.264583"
       d="m 490.61877,187.40921 c -24.92383,0.48915 -46.24387,-3.66658 -54.8763,-13.07325 -8.63243,-9.40668 -6.56939,-27.78617 -0.63661,-33.35421 5.9328,-5.56805 25.18195,-21.3095 59.68992,-3.25093 34.50799,18.05856 26.80927,50.84446 23.61345,58.83688 -3.19582,7.99241 -13.37495,21.42322 -19.85788,26.0217 -5.99134,4.24978 -23.07301,15.50687 -58.04135,16.61523 -34.96834,1.10835 -41.76747,-0.27201 -41.76747,-0.27201 0,0 -8.84314,-3.43463 -8.29553,-9.47371 0.5476,-6.03908 2.28158,-9.40956 5.69798,-9.92297 3.41638,-0.51341 60.55553,1.42573 60.55553,1.42573 0,0 21.10385,-3.43874 29.05511,-10.4875 7.94925,-7.04698 6.60218,-6.54465 10.64284,-12.49966 4.04069,-5.95501 5.57964,-9.49179 5.82994,-13.99856 0.2503,-4.50677 1.47714,-15.05473 -6.86652,-25.12699 -8.34366,-10.07226 -31.70002,-11.60356 -31.70002,-11.60356 0,0 -14.77743,-1.54865 -16.68142,8.64494 -1.904,10.1936 14.83331,12.28779 14.83331,12.28779 0,0 7.11655,1.92839 12.81795,1.57962 5.70137,-0.34877 15.21306,-0.87619 15.21306,-0.87619 0,0 8.58491,0.41459 9.1531,6.89711 0.56822,6.48252 -0.81917,7.46057 -8.37909,11.63054 z"
       id="path7583" /><path
       style="fill:#1486c8;fill-opacity:1;stroke-width:0.264583"
       d="m 894.86321,83.854892 -11.12475,25.206878 c 0,0 -3.09481,7.24514 3.74711,11.72867 6.84194,4.48353 10.7347,-3.91748 10.7347,-3.91748 l 11.86979,-26.563523 c 0,0 2.23906,-3.937344 -3.05131,-9.547132 -5.2904,-5.609786 -12.17554,3.092587 -12.17554,3.092587 z"
       id="path7585" /><path
       id="path7587"
       style="fill:#1486c8;fill-opacity:1;stroke-width:0.264583"
       d="m 703.1921,98.871756 c -15.19352,-0.02694 -20.43072,12.400674 -19.56263,15.808344 0,0 0.3919,16.23997 17.50229,16.92352 17.11037,0.68355 20.47161,-13.8989 20.47161,-13.8989 0,0 4.00972,-16.05817 -14.33194,-18.544609 -1.43294,-0.194253 -2.79175,-0.286072 -4.07933,-0.288355 z m 0.2806,13.053994 c 1.50646,-0.005 4.93747,0.41069 4.82813,4.30568 -0.13999,4.98559 -9.81491,1.27382 -9.81491,1.27382 0,0 -1.91935,-1.43042 -1.56941,-3.43235 0.34991,-2.00192 5.86321,-2.11149 5.86321,-2.11149 0,0 0.27117,-0.0343 0.69298,-0.0357 z" /><path
       style="fill:#4d2b15;fill-opacity:1;stroke:none;stroke-width:0.264999;stroke-dasharray:none;paint-order:stroke fill markers"
       d="m 428.78486,110.9467 4.11387,9.83624 c 0,0 0.49562,1.16786 3.6748,2.6065 3.17918,1.43864 -0.91361,-7.33264 -0.91361,-7.33264 l -3.62773,-8.80484 c 0,0 -0.71916,-2.10381 -2.03176,-1.91777 -1.3126,0.18603 -2.13445,1.40618 -1.21557,5.61251 z"
       id="path10847" /><path
       style="fill:#4d2b15;fill-opacity:1;stroke:none;stroke-width:0.264999;stroke-dasharray:none;paint-order:stroke fill markers"
       d="m 446.71204,105.73983 c 0.12002,5.31428 0.45839,9.52197 0.45839,9.52197 0,0 2.58072,6.24554 3.82088,-1.00019 1.24018,-7.24572 0.76933,-16.416697 0.76933,-16.416697 0,0 -1.19552,-7.534143 -3.01302,-2.814172 -1.81748,4.719971 -2.16652,7.658699 -2.03558,10.709089 z"
       id="path11575" /><path
       style="fill:#4d2b15;fill-opacity:1;stroke:none;stroke-width:0.264999;stroke-dasharray:none;paint-order:stroke fill markers"
       d="m 464.22198,102.21882 c -0.97451,11.21749 -1.29995,13.75959 0.014,14.77495 1.31397,1.01536 3.59589,-0.36061 4.17927,-2.70355 0.58338,-2.34293 2.52204,-14.965154 2.52204,-14.965154 0,0 1.28902,-5.266822 0.022,-8.045521 -1.26701,-2.778697 -3.55486,-2.212845 -4.64116,-0.352343 -1.08628,1.860505 -2.09622,11.291618 -2.09622,11.291618 z"
       id="path11577" /><path
       style="fill:#4d2b15;fill-opacity:1;stroke:none;stroke-width:0.264999;stroke-dasharray:none;paint-order:stroke fill markers"
       d="m 484.47229,102.48745 c -5.7857,15.20066 -5.5459,14.04815 -5.5459,14.04815 0,0 -0.75227,3.74544 1.26375,4.56312 2.01605,0.81769 3.86284,-1.55229 4.60838,-3.20751 0.74552,-1.65522 4.39235,-12.19627 4.39235,-12.19627 0,0 1.70349,-4.37353 -0.27469,-6.091424 -1.97818,-1.717892 -4.44389,2.883934 -4.44389,2.883934 z"
       id="path11579" /><path
       style="fill:#4d2b15;fill-opacity:1;stroke:none;stroke-width:0.264999;stroke-dasharray:none;paint-order:stroke fill markers"
       d="m 500.63807,116.32928 -4.12237,5.96534 c 0,0 -1.72707,4.92077 1.56776,2.84137 3.29483,-2.0794 6.59863,-6.68472 6.59863,-6.68472 l 2.18435,-3.97553 c 0,0 1.92484,-4.0781 0.1633,-3.48358 -1.76152,0.59452 -2.43552,0.10779 -6.39167,5.33712 z"
       id="path11583" /><path
       style="fill:#d7361f;fill-opacity:1;stroke:none;stroke-width:0.264999;stroke-dasharray:none;paint-order:stroke fill markers"
       d="m 202.31428,244.27977 -11.83115,1.71444 c 0,0 -5.94105,2.79902 -4.98639,9.15287 0.95466,6.35385 5.43136,7.50516 5.43136,7.50516 0,0 37.12098,-1.18442 50.1363,-1.51789 13.01533,-0.33348 23.64153,1.69773 33.78132,7.8711 10.13975,6.17337 33.16771,19.50508 42.29232,29.1987 9.1246,9.6936 15.54305,10.33548 27.59271,12.44532 12.04968,2.10981 23.51095,0.84791 41.86393,-4.37629 18.35298,-5.22417 20.09693,-16.53511 46.27637,-29.57293 26.17943,-13.03779 33.8605,-15.07875 49.05652,-17.63357 15.19603,-2.55482 47.13775,-0.60048 47.13775,-0.60048 0,0 8.53188,-1.65065 8.62166,-8.27688 0.0898,-6.62622 -3.40898,-8.79278 -6.15482,-9.96761 -2.74587,-1.17482 -53.08248,0.63296 -53.08248,0.63296 0,0 -28.94404,5.24731 -42.63538,13.32896 -13.69132,8.08166 -30.48929,17.88694 -38.49129,24.51375 -8.00204,6.6268 -18.03207,10.88329 -28.00493,12.02116 -9.97284,1.13784 -17.88155,2.55881 -24.59146,1.07211 -6.70989,-1.48669 -24.98143,-14.27601 -30.61692,-21.2589 -5.63552,-6.98289 -36.84138,-26.16027 -68.34064,-27.23691 -31.49925,-1.07665 -43.45478,0.98493 -43.45478,0.98493 z"
       id="path12827" /><path
       id="path17721"
       style="fill:#1486c8;fill-opacity:1;stroke:none;stroke-width:0.264999;stroke-dasharray:none;paint-order:stroke fill markers"
       d="m 773.29997,74.556166 c -3.36376,0.12514 -7.12099,2.06349 -11.80083,6.68538 -12.47966,12.32511 -13.88133,28.169864 -13.88133,28.169864 0,0 -3.22739,25.89837 -0.57309,42.20001 2.6543,16.3016 5.22625,29.73564 2.89646,36.12802 -2.32974,6.39243 -14.38035,13.86433 -15.34118,14.02602 -0.96086,0.16168 -12.26033,2.30709 -15.22284,-0.43718 -2.96254,-2.74427 -7.28558,-6.59036 -7.40472,-11.59774 -0.11914,-5.00743 0.95793,-28.22419 1.33946,-31.8916 0.38153,-3.66737 -0.65857,-13.91772 -3.80391,-15.48587 -3.14529,-1.56815 -6.39607,-2.97063 -10.99416,1.08365 -4.59803,4.05433 -4.47828,8.09738 -4.47828,11.04326 0,2.94582 0.4253,29.93409 0.4253,29.93409 0,0 -0.94457,8.26167 -7.71322,13.37747 -6.7687,5.11584 -17.39341,10.63961 -21.46691,10.18388 -4.07358,-0.45573 -14.19202,-3.34421 -16.57367,-8.48424 -2.3816,-5.13997 3.73983,-16.65893 3.73983,-16.65893 l 9.73739,-18.18287 c 0,0 11.35239,-31.20485 -17.76533,-37.81061 -29.11772,-6.60577 -36.60861,8.94467 -36.60861,8.94467 0,0 -7.42255,7.54544 -10.81847,17.17467 -3.39588,9.62918 -5.85127,18.84654 -5.74538,21.88651 0.10589,3.04001 0.35502,24.1484 0.35502,24.1484 0,0 -5.03806,8.22453 -11.25772,8.4677 -6.21959,0.24317 -22.81514,-1.2671 -22.81514,-1.2671 0,0 -4.18245,1.4254 -4.07934,-6.01359 0.10314,-7.43899 1.10588,-43.73325 1.10588,-43.73325 l 1.6247,-13.14803 c 0,0 -1.03474,-4.48085 5.80792,-4.84415 6.84263,-0.36331 33.66358,-1.32344 33.66358,-1.32344 0,0 7.37356,-1.02442 6.24871,-8.53333 -1.12484,-7.50885 -4.28291,-8.21978 -10.14357,-8.12405 -5.86057,0.0957 -28.87369,0.38293 -28.87369,0.38293 0,0 -5.13707,1.06847 -5.14387,-4.50981 -0.007,-5.57824 0.13178,-34.740514 0.13178,-34.740514 0,0 0.70837,-5.66132 -7.78867,-5.45703 -8.4971,0.20429 -9.34027,6.49862 -9.31778,8.47545 l -0.95292,33.610874 c 0,0 0.1452,2.56115 -1.45934,2.52801 -1.60454,-0.0331 -14.67559,0.28835 -14.67559,0.28835 0,0 -6.79162,-0.74346 -9.09143,5.77949 -2.29979,6.52299 1.92288,8.4336 1.92288,8.4336 0,0 4.96036,3.94397 8.21862,3.96255 3.25824,0.0186 13.29324,-1.00614 13.29324,-1.00614 l -0.47904,11.97653 -2.29857,27.3823 c 0,0 -2.5175,20.08312 0.36432,28.6489 2.88187,8.56578 8.7214,16.803 17.99529,18.53737 9.27389,1.73437 32.62023,0.44907 32.62023,0.44907 0,0 11.96947,-3.99367 16.25792,-11.04015 4.28848,-7.04654 6.0663,-14.04034 6.0663,-17.2775 0,-3.23716 1.90789,-31.38465 1.90789,-31.38465 0,0 1.7117,-12.18236 9.92704,-17.54621 8.21542,-5.36391 8.26366,-5.3554 12.63644,-5.61827 4.37279,-0.26287 11.55889,0.0385 12.72171,2.02469 1.16281,1.98607 3.01075,7.52133 0.61908,15.61093 -2.39171,8.0896 -9.53534,20.4525 -9.53534,20.4525 0,0 -6.88466,13.69388 -7.17734,17.57825 -0.29266,3.88442 -2.58093,16.93026 15.90859,23.31744 18.48956,6.38723 28.36794,3.77281 30.55938,3.09542 2.19144,-0.67739 16.62022,-5.94923 19.99464,-10.20919 3.37445,-4.26 6.5872,-4.71858 6.5872,-4.71858 0,0 1.98981,-0.90351 9.53689,7.40007 7.54705,8.30352 22.94269,3.22248 26.66297,1.96267 3.72021,-1.25986 15.42851,-12.13725 15.42851,-12.13725 0,0 3.10998,-8.01795 7.80935,1.19373 4.69932,9.21169 10.71097,14.92053 10.71097,14.92053 0,0 2.01034,2.35393 6.07198,1.10175 4.06165,-1.25224 5.06413,-2.61928 4.81728,-6.18516 -0.24686,-3.56582 -0.97255,-14.1273 -0.97255,-14.1273 0,0 0.44313,-5.20375 4.1491,-0.85886 3.70594,4.34484 12.13244,17.94568 25.11939,20.69693 12.98699,2.75121 33.36489,-8.88938 33.36489,-8.88938 l 12.45609,-7.70754 c 0,0 2.86949,-2.29764 5.35006,0.45785 2.4806,2.75548 14.16195,13.21979 25.28631,15.49983 11.12435,2.28004 28.54451,0.0966 28.54451,0.0966 0,0 12.51022,-0.44858 23.66471,-15.08486 11.15449,-14.63634 15.61507,1.5291 15.61507,1.5291 0,0 3.8613,9.43049 9.63713,12.71706 5.77591,3.28651 11.77448,-1.11053 11.77448,-1.11053 0,0 3.63875,-5.33746 1.18391,-11.74657 -2.45491,-6.40911 -4.8581,-10.87737 -4.8581,-10.87737 0,0 -0.90245,-5.50008 3.1843,-2.26912 4.0867,3.23102 27.11106,25.85166 27.11106,25.85166 0,0 12.2188,12.11441 30.2668,12.51551 10.1491,0.22555 19.6646,-3.28945 27.0794,-5.87135 9.7284,-4.57244 11.9506,-5.92801 19.4449,-15.85199 4.5454,-5.72995 8.6713,-12.58582 10.4175,-17.67529 3.7307,-10.87357 -6.9174,-11.72228 -6.9174,-11.72228 0,0 -5.0506,-2.45757 -9.4398,6.87105 -4.6093,9.79651 -5.9261,13.5064 -8.2949,16.00804 -2.3915,2.52554 -3.3542,3.33116 -6.3397,5.4337 -2.9163,2.05383 -10.5638,4.23256 -13.4796,4.61182 -5.9002,0.76744 -17.4654,0.6184 -24.804,-3.81476 -7.3387,-4.4331 -24.1447,-16.22772 -24.85376,-19.86235 -0.70905,-3.63467 19.06806,-16.68942 19.06806,-16.68942 0,0 13.5843,-13.19306 -6.722,-22.38778 -20.30684,-9.19472 -36.82002,-1.10433 -36.82002,-1.10433 0,0 -1.87997,1.27525 -1.23145,-1.86087 0.64852,-3.13606 4.02491,-14.81579 4.1708,-35.03403 0.14592,-20.218244 -8.01148,-37.051674 -18.56889,-40.342244 -10.55743,-3.29061 -18.76578,10.3482 -18.76578,10.3482 0,0 -7.09511,13.28183 -8.64392,19.162664 -1.54875,5.88078 -0.27029,43.06796 5.65289,53.42568 5.92317,10.35772 6.66745,13.71003 7.19336,17.45268 0.52591,3.7426 2.43023,7.8034 -6.57169,14.29887 -9.00192,6.49542 -15.72425,15.81158 -33.31683,16.43879 -17.59257,0.62722 -27.42158,-8.45737 -27.42158,-8.45737 l 43.56271,-38.83535 c 0,0 6.30136,-13.46957 -4.35839,-22.37022 -10.65977,-8.90061 -22.18493,-7.77191 -26.44438,-6.93291 -4.25945,0.83904 -16.5229,0.93906 -25.62841,7.53236 -9.10547,6.59329 -14.58264,15.4847 -15.03888,20.88451 -0.45617,5.39986 -2.02489,10.57345 -1.00458,16.05432 1.02027,5.48093 1.98145,11.45164 4.68446,15.94942 2.70306,4.49773 -0.77204,4.94078 -0.77204,4.94078 l -21.2199,9.33225 c 0,0 -12.6393,4.61652 -19.76623,-2.85564 -7.12689,-7.47221 -6.15156,-8.57157 -6.15156,-8.57157 0,0 -0.8647,-1.40983 11.66233,-7.68584 12.52707,-6.27601 15.27909,-14.79902 16.21969,-18.16065 0.94054,-3.36156 -4.49871,-15.19369 -16.19023,-17.11213 -11.69152,-1.91844 -25.44186,1.67535 -25.44186,1.67535 0,0 -0.39322,0.23263 -0.34416,-1.81798 0.049,-2.05061 4.5067,-22.28288 4.5067,-22.28288 0,0 4.96326,-33.210224 -4.43074,-42.554504 -5.87124,-5.8402 -10.38453,-10.6689 -15.99075,-10.46035 z m 2.51302,20.35483 c 1.88283,0.02869 3.06131,1.61851 3.06131,1.61851 0,0 3.79507,9.123864 -1.25884,36.378664 -5.05391,27.2548 -8.2889,23.47505 -8.2889,23.47505 0,0 -4.90017,-0.28816 -6.67349,-7.01611 -1.77331,-6.72795 1.00511,-31.23582 1.00511,-31.23582 4.56623,-19.511224 9.2176,-23.265044 12.15481,-23.220294 z m 175.91484,1.29501 c 1.22274,-0.04194 2.40013,0.94131 3.5755,2.32183 2.68651,3.155444 2.17117,12.945494 2.92282,22.509224 0.75162,9.56374 -1.65107,25.94725 -1.65107,25.94725 0,0 -3.05654,8.94208 -7.43985,3.9796 -4.38335,-4.96243 -3.48403,-25.31215 -3.48403,-25.31215 0,0 -2.18186,-14.36333 1.04335,-22.86217 1.81417,-4.780584 3.46123,-6.529654 5.03328,-6.583584 z M 897.3327,143.85995 c 11.99668,-0.16759 4.96611,10.6655 4.96611,10.6655 l -36.03398,30.24777 c 0,0 -15.66627,-27.41465 15.94322,-37.70571 6.91456,-2.25117 11.7656,-3.16063 15.12465,-3.20756 z m 90.61411,18.56476 c 7.05843,0.093 11.14092,5.75159 11.14092,5.75159 0,0 -24.74615,17.1029 -26.53326,17.91208 0,0 -9.84281,-8.68883 4.02663,-19.28616 4.33416,-3.31168 8.15736,-4.41976 11.36571,-4.37751 z m -195.82215,3.61322 c 0.14649,-10e-4 0.29483,-6.7e-4 0.44441,0.001 19.14619,0.21806 15.0766,3.01842 15.0766,3.01842 0,0 1.64547,2.53088 -5.98723,5.62343 -7.63268,3.09254 -19.66726,6.90156 -21.98729,13.4214 0,0 -6.15134,-21.93455 12.45351,-22.06428 z" /><path
       id="path20924"
       style="fill:#4d2b15;fill-opacity:1;stroke:none;stroke-width:0.264999;stroke-dasharray:none;paint-order:stroke fill markers"
       d="m 575.50701,237.21912 c -1.82366,-0.0463 -3.87916,0.77753 -5.39915,2.49597 0,0 -7.67534,5.57864 -13.9268,17.24546 -6.25146,11.66682 -10.51508,20.09237 -11.18175,22.54436 -0.66669,2.452 -0.83359,3.92805 0.87437,5.29115 1.70793,1.36314 5.50819,-4.1739 5.50819,-4.1739 l 6.84971,-12.95838 c 0,0 1.77975,-4.35722 5.2033,-4.10466 3.42356,0.25255 9.0227,0.0315 9.0227,0.0315 0,0 -2.24901,7.93053 -2.15387,11.49025 0.0952,3.55973 -0.92792,7.36574 1.0573,8.44083 1.9852,1.07508 6.22918,-1.22105 7.3303,-9.58391 1.10109,-8.36284 1.46244,-10.43812 1.46244,-10.43812 l 3.53312,-0.39688 c 0,0 2.62104,-0.39704 2.87528,-2.68459 0.25421,-2.28754 -2.76624,-2.85564 -2.76624,-2.85564 l -3.54345,-0.37207 0.22996,-11.21275 c 0,0 0.27245,-4.62195 -1.50224,-7.08329 -0.77641,-1.07683 -2.05477,-1.63932 -3.47317,-1.67535 z m -1.25677,5.72317 c 0.54099,0.0187 0.87612,0.35444 1.04696,1.10846 0.39052,1.72346 -0.72657,13.14545 -0.72657,13.14545 l -11.55847,-0.66611 c 0,0 5.43383,-10.86102 8.04034,-12.30158 1.46617,-0.81032 2.50218,-1.31027 3.19774,-1.28622 z" /><path
       style="fill:#4d2b15;fill-opacity:1;stroke:none;stroke-width:0.264999;stroke-dasharray:none;paint-order:stroke fill markers"
       d="m 597.61387,244.08776 -9.98988,28.24237 c 0,0 -2.87051,8.70831 0.13351,11.36399 3.00405,2.65568 6.39612,2.74831 6.39612,2.74831 0,0 4.7552,-1.40677 5.1204,-4.73213 0.36523,-3.32536 -3.19548,-2.10592 -3.19548,-2.10592 0,0 -3.89869,2.45718 -3.70493,-0.86953 0.19375,-3.32669 6.17365,-19.78803 6.17365,-19.78803 l 4.61846,-15.46972 c 0,0 0.87948,-4.23592 -1.10487,-4.35345 -1.98437,-0.11753 -3.39751,1.54098 -4.44698,4.96411 z"
       id="path20926" /><path
       id="path20928"
       style="fill:#4d2b15;fill-opacity:1;stroke:none;stroke-width:0.264999;stroke-dasharray:none;paint-order:stroke fill markers"
       d="m 631.87721,252.47969 c -2.0348,-0.0124 -4.25567,0.0929 -5.72161,0.50695 -3.35074,0.94634 -11.2608,4.42957 -15.54892,10.65413 -4.28813,6.22454 -6.85168,10.60545 -4.64778,14.26889 2.20392,3.66348 6.58794,6.17534 10.87324,5.98878 4.28526,-0.18656 10.55697,-4.61057 10.55697,-4.61057 0,0 2.93852,-1.93769 3.33055,1.0542 0.39206,2.99188 0.076,3.50086 0.73225,4.12171 0.65616,0.62082 3.66105,0.48199 4.79454,-2.45824 1.13353,-2.94026 1.1234,-8.90622 1.19941,-10.08208 0.076,-1.17586 3.4923,-10.05261 3.4923,-10.05261 0,0 1.18717,-5.73306 0.22996,-7.31273 -0.95718,-1.57967 -4.36614,-1.85157 -4.36614,-1.85157 0,0 -2.30859,-0.21086 -4.92477,-0.22686 z m -0.56844,5.86269 c 2.42249,0.0165 2.48519,3.09297 -0.59635,8.72918 -3.13046,5.72566 -10.56193,9.65953 -12.50052,10.16527 -1.9386,0.50575 -3.38575,0.39545 -5.29374,-2.43964 -1.90799,-2.83509 6.86522,-12.09384 6.86522,-12.09384 3.30707,-4.09483 8.87129,-4.27732 11.40809,-4.35942 0.0396,-10e-4 0.0788,-0.002 0.1173,-0.002 z" /><path
       id="path20930"
       style="fill:#4d2b15;fill-opacity:1;stroke:none;stroke-width:0.264999;stroke-dasharray:none;paint-order:stroke fill markers"
       d="m 665.73664,252.15051 c -5.52353,-0.0502 -6.94366,2.41866 -9.00978,3.5512 -2.27986,1.24972 -2.73472,-1.06453 -2.73472,-1.06453 0,0 -3.38866,-4.28099 -5.32784,1.93735 l -11.79773,45.87937 c 0,0 -0.12,4.00417 3.36414,2.76055 3.4841,-1.24361 5.88657,-6.66168 6.66212,-10.88098 0.77557,-4.21928 1.57613,-9.0687 1.57613,-9.0687 0,0 8.13439,2.25691 14.87041,-0.94 6.73603,-3.19692 16.49891,-15.63722 15.36806,-22.48286 -1.13083,-6.84563 -4.03144,-8.91461 -11.11922,-9.59063 -0.66448,-0.0634 -1.28017,-0.0956 -1.85157,-0.10077 z m 2.40141,5.98568 c 0.11657,0.002 0.2316,0.008 0.34468,0.0191 3.61868,0.36324 3.593,4.81276 3.24838,7.55923 -0.34462,2.74645 -4.58876,6.78666 -7.95559,10.15494 -3.36681,3.36824 -6.04426,4.42611 -8.99635,3.49229 -2.95208,-0.93385 -2.23543,-3.32024 -2.36471,-5.12785 -0.12925,-1.80761 4.61315,-8.73952 4.61315,-8.73952 2.28061,-2.89465 7.49679,-7.40912 11.11044,-7.35821 z" /><path
       style="fill:#4d2b15;fill-opacity:1;stroke:none;stroke-width:0.264999;stroke-dasharray:none;paint-order:stroke fill markers"
       d="m 688.46845,253.24847 c 0,0 -4.35663,17.15346 -3.57217,24.31147 0.78446,7.15801 5.00335,8.77631 5.00335,8.77631 0,0 1.95734,0.63923 2.67875,-0.61328 0.72139,-1.25251 -0.0997,-5.59326 -1.01402,-8.13464 -0.91434,-2.5414 -1.25674,-5.10289 -0.75115,-7.58724 0.50559,-2.48439 2.84827,-15.39641 2.84827,-15.39641 0,0 0.62801,-3.00475 -1.38875,-3.38041 -2.01678,-0.37565 -3.37047,1.01083 -3.80428,2.0242 z"
       id="path20932" /><path
       style="fill:#4d2b15;fill-opacity:1;stroke:none;stroke-width:0.264999;stroke-dasharray:none;paint-order:stroke fill markers"
       d="m 690.188,240.88945 c 0,0 -2.47295,3.17138 -2.23464,4.45883 0.23833,1.28744 0.74215,3.49689 2.08632,3.30815 1.34419,-0.18875 2.96934,-1.1459 4.60454,-4.80389 1.63523,-3.658 2.32997,-5.78742 -0.29935,-5.72807 -2.62935,0.0594 -4.15687,2.76498 -4.15687,2.76498 z"
       id="path20934" /><path
       style="fill:#4d2b15;fill-opacity:1;stroke:none;stroke-width:0.264999;stroke-dasharray:none;paint-order:stroke fill markers"
       d="m 697.22711,275.41859 c 0,0 -0.32105,7.01799 2.44332,8.31569 2.76439,1.29771 7.61966,3.78487 9.01721,1.26791 1.39756,-2.51698 1.43291,-5.16318 0.22003,-6.09629 -1.21288,-0.9331 -4.57351,-0.0649 -4.57351,-0.0649 0,0 -1.11932,-1.63446 0.41794,-8.86973 1.53728,-7.23524 2.26216,-13.01203 4.87629,-13.34758 2.61414,-0.33556 7.59704,-0.55263 7.88517,2.48414 0.28813,3.03677 0.16626,19.86202 0.16626,19.86202 0,0 0.63336,4.31702 2.73966,5.26815 2.10629,0.95115 5.61562,3.15986 11.97655,-2.48854 6.36092,-5.64838 16.9173,-23.34104 16.9173,-23.34104 0,0 2.52753,-3.3497 0.97536,-7.37907 -1.55221,-4.02937 -5.13342,-0.24318 -5.13342,-0.24318 l -12.84002,21.90385 c 0,0 -2.20226,4.83283 -5.02769,4.67283 -2.82543,-0.15999 -3.29605,0.0468 -3.17151,-2.67906 0.12454,-2.72587 0.40087,-19.9361 0.40087,-19.9361 0,0 0.33073,-4.33283 -4.66357,-4.55578 -4.9943,-0.22295 -9.11564,-0.33514 -9.11564,-0.33514 0,0 1.22897,-5.42374 2.711,-8.47946 1.48207,-3.05573 -1.30302,-4.04355 -1.86838,-4.07009 -0.56533,-0.0265 -2.76632,-0.40299 -4.51845,3.14801 -1.75209,3.551 -2.92886,7.71151 -2.92886,7.71151 0,0 -5.44938,-0.0886 -5.80363,3.18783 -0.35425,3.27644 3.7451,4.11233 3.7451,4.11233 0,0 -4.93181,17.3148 -4.84738,19.95169 z"
       id="path20936" /><path
       style="fill:#4d2b15;fill-opacity:1;stroke:none;stroke-width:0.264999;stroke-dasharray:none;paint-order:stroke fill markers"
       d="m 775.55338,236.07164 c 0,0 -7.53219,9.05123 -3.84604,9.4292 3.68615,0.37797 7.37656,-6.66828 7.37656,-6.66828 0,0 0.65064,-3.27375 -0.40172,-3.56365 -1.05233,-0.2899 -3.1288,0.80273 -3.1288,0.80273 z"
       id="path20938" /><path
       id="path20940"
       style="fill:#4d2b15;fill-opacity:1;stroke:none;stroke-width:0.264999;stroke-dasharray:none;paint-order:stroke fill markers"
       d="m 777.03993,248.39518 c 0,0 -14.79111,-0.27916 -23.6027,14.3614 -8.8116,14.64059 -0.84336,19.0221 -0.84336,19.0221 0,0 5.45416,4.20003 9.64954,1.37407 4.19542,-2.82595 7.88531,-5.30148 7.88531,-5.30148 0,0 2.49539,-1.69478 2.84634,1.45366 0.35091,3.14843 3.98684,4.84828 3.98684,4.84828 0,0 3.80363,1.00787 4.14135,-2.82309 0.33773,-3.83094 -1.92082,-6.14432 -1.92082,-6.14432 0,0 -0.99018,-3.51443 1.24592,-10.25674 2.23613,-6.74231 3.29144,-11.55806 2.18953,-13.28756 -1.10191,-1.72949 -4.19926,-3.2705 -5.57795,-3.24632 z m -5.72782,9.01754 c 1.04857,-0.0183 1.99086,0.40694 2.3766,1.77922 1.07333,3.81852 0.69689,6.21352 -4.76508,12.50673 -5.46198,6.29325 -9.29611,5.06814 -10.4774,4.16926 -1.18128,-0.89892 0.26768,-6.50813 0.26768,-6.50813 1.85719,-4.9028 8.52145,-10.47223 8.52145,-10.47223 0,0 2.20756,-1.44223 4.07675,-1.47485 z" /><path
       style="fill:#4d2b15;fill-opacity:1;stroke:none;stroke-width:0.264999;stroke-dasharray:none;paint-order:stroke fill markers"
       d="m 788.55254,260.97775 c 0,0 -4.03328,11.08172 -3.19053,19.34595 0.84273,8.26423 4.72901,2.16037 4.72901,2.16037 l 4.19409,-12.46631 c 0,0 1.2836,-6.69551 6.78355,-11.25879 5.49992,-4.56328 7.45884,-3.38737 7.45884,-3.38737 0,0 2.87568,0.0699 3.32814,2.86096 0.45244,2.79107 -0.36698,9.05766 -0.6418,10.24397 -0.2748,1.18629 -1.67291,7.61437 -1.20737,9.86449 0.46553,2.25012 0.43309,3.6808 4.19126,5.26087 3.75817,1.58006 8.78274,1.39345 9.05476,0.87124 0.27204,-0.52223 2.37715,-2.32478 -0.17532,-3.54525 -2.55248,-1.2205 -5.65163,-0.85019 -6.53846,-2.29365 -0.88683,-1.44346 -2.17212,-3.82781 -0.89032,-10.59894 1.28177,-6.77117 2.5595,-11.68125 -0.3347,-15.28811 -2.89422,-3.60687 -7.13158,-3.50143 -10.98402,-2.333 -3.85241,1.16844 -6.73915,2.46245 -7.74641,3.32761 -1.00727,0.86516 -1.07363,0.88305 -1.57806,0.3926 -0.50443,-0.49044 -0.69995,-2.43255 -1.96535,-2.37254 -1.26537,0.06 -3.21527,3.38771 -4.48731,9.2159 z"
       id="path20942" /><path
       style="fill:#4d2b15;fill-opacity:1;stroke:none;stroke-width:0.264999;stroke-dasharray:none;paint-order:stroke fill markers"
       d="m 832.72904,291.0516 c 0,0 -4.20052,3.65628 -13.36288,4.05006 -9.16237,0.39378 -2.65801,6.00001 -2.65801,6.00001 0,0 5.13263,0.90551 7.84127,0.77859 2.70862,-0.12693 11.41812,-1.62203 16.88899,-8.03598 5.47087,-6.41395 10.77966,-19.4722 11.4703,-25.61812 0.69064,-6.14594 3.26533,-15.37465 -0.61389,-17.17367 -3.87921,-1.79902 -4.04246,7.22864 -4.04246,7.22864 0,0 -2.96897,14.77132 -7.19503,17.39358 -4.22606,2.62223 -7.22037,3.97099 -10.8821,1.01004 -3.66175,-2.96095 -3.67892,-5.02772 -3.20196,-7.63645 0.47696,-2.60872 2.67219,-9.95711 2.67219,-9.95711 0,0 1.14318,-7.20217 -0.88289,-7.6881 -2.02605,-0.48592 -3.52319,-0.33186 -4.65154,4.37608 -1.12834,4.70795 -4.48101,14.88155 -2.86808,18.44461 1.6129,3.56304 1.97355,5.46476 6.08783,6.9767 4.11424,1.51193 8.87121,2.06486 10.26768,1.67608 1.39647,-0.38878 3.07221,-0.0648 1.11249,2.33024 -1.95969,2.39503 -5.98191,5.8448 -5.98191,5.8448 z"
       id="path20944" /></g>
</svg>
