<?xml version="1.0" encoding="UTF-8" standalone="no"?>
<svg
   width="368"
   height="97"
   viewBox="0 0 486.83334 128.3229"
   version="1.1"
   id="svg5"
   xml:space="preserve"
   xmlns="http://www.w3.org/2000/svg"
   xmlns:svg="http://www.w3.org/2000/svg"><defs
     id="defs2" /><g
     id="layer1"><path
       style="fill:#010101;stroke-width:0.267957;fill-opacity:1"
       d="m 201.14839,45.403087 c -0.72422,-0.79768 -0.5993,-2.26232 0.79361,-9.30625 0.35251,-1.78258 0.64091,-3.53151 0.64091,-3.88653 0,-1.67444 1.50921,-2.32384 2.97793,-1.28137 0.96505,0.68499 0.99544,1.3904 0.2361,5.4814 -0.29887,1.61014 -0.71126,4.11271 -0.91644,5.56125 -0.2882,2.03479 -0.51096,2.78007 -0.97951,3.27724 -0.73958,0.78473 -2.11047,0.86156 -2.7526,0.15426 z"
       id="path13601" /><path
       style="fill:#010101;stroke-width:0.267957;fill-opacity:1"
       d="m 195.42269,45.574317 c -0.68789,-0.33149 -1.05403,-1.18474 -1.29856,-3.0261 -0.0976,-0.7357 -0.46878,-2.57062 -0.82459,-4.0776 -0.80272,-3.39977 -0.8292,-4.70292 -0.11016,-5.41967 0.66907,-0.66693 1.98869,-0.69296 2.63179,-0.0519 0.33824,0.33715 0.78444,2.01466 1.47659,5.55123 0.54553,2.78743 0.99165,5.28422 0.99141,5.5484 -5.3e-4,0.62976 -1.18547,1.79864 -1.79985,1.77555 -0.26503,-0.0101 -0.74502,-0.14492 -1.06663,-0.29991 z"
       id="path13599" /><path
       style="fill:#010101;stroke-width:0.267957;fill-opacity:1"
       d="m 110.36664,45.596317 c -0.46908,-0.517 -0.51463,-1.07469 -0.55174,-6.7551 -0.0222,-3.40537 0.0241,-6.52787 0.10298,-6.93891 0.20448,-1.06542 1.45943,-1.68347 2.52496,-1.24352 0.43332,0.17891 0.90403,0.5417 1.04606,0.80619 0.15374,0.2864 0.21612,3.16057 0.1542,7.10618 -0.10145,6.46347 -0.11857,6.63706 -0.70076,7.10699 -0.80001,0.64574 -1.94873,0.60925 -2.5757,-0.0818 z"
       id="path13597" /><path
       style="fill:#010101;stroke-width:0.267957;fill-opacity:1"
       d="m 116.8696,46.407927 c -0.39248,-0.30774 -0.70716,-0.8244 -0.70716,-1.16106 0,-0.69917 1.29558,-4.52895 2.43835,-7.20782 0.43025,-1.0086 0.78229,-1.98557 0.78229,-2.17103 0,-0.18546 0.2503,-0.6544 0.55625,-1.0421 1.04946,-1.3299 3.46955,-0.63967 3.46955,0.98955 0,0.34338 -0.60005,2.14764 -1.33343,4.00945 -0.73339,1.86182 -1.52668,4.04776 -1.76287,4.85765 -0.64346,2.20633 -1.97717,2.87469 -3.44298,1.72536 z"
       id="path13593" /><path
       style="fill:#010101;stroke-width:0.267957;fill-opacity:1"
       d="m 103.92393,47.025187 c -0.45241,-0.30111 -0.91244,-1.2961 -0.91244,-1.97349 0,-0.58755 -1.62642,-7.53681 -2.1557,-9.21074 -0.41506,-1.31264 -0.30815,-1.9107 0.44738,-2.5031 2.09976,-1.64641 3.21309,0.0209 4.79255,7.1775 0.90169,4.08554 0.89427,5.43229 -0.034,6.1601 -0.71736,0.56247 -1.60102,0.70703 -2.13782,0.34973 z"
       id="path13591" /><path
       style="fill:#010101;stroke-width:0.267957;fill-opacity:1"
       d="m 189.51321,47.363547 c -0.31623,-0.22079 -0.77298,-0.9957 -1.01503,-1.72204 -0.46912,-1.40794 -2.12617,-4.13007 -3.39505,-5.57728 -0.94418,-1.07686 -0.98049,-2.01279 -0.11174,-2.87879 1.2489,-1.24491 2.42532,-0.72881 4.29633,1.88479 1.47614,2.06199 3.0854,5.20893 3.28233,6.41861 0.27256,1.67421 -1.65281,2.855 -3.05684,1.87471 z"
       id="path13589" /><path
       style="fill:#010101;stroke-width:0.267957;fill-opacity:1"
       d="m 207.80426,47.375847 c -0.36233,-0.36115 -0.65879,-0.83704 -0.65879,-1.05752 0,-1.22713 3.95273,-10.58355 4.89861,-11.59538 0.7334,-0.78454 1.67296,-0.76392 2.49423,0.0547 0.8332,0.83056 0.82618,1.51563 -0.0345,3.35628 -0.8879,1.89891 -2.64714,6.22628 -3.13461,7.71046 -0.20881,0.63579 -0.57914,1.38822 -0.82295,1.67205 -0.62915,0.73244 -1.93328,0.66557 -2.74201,-0.14061 z"
       id="path13587" /><path
       style="fill:#010101;stroke-width:0.267957;fill-opacity:1"
       d="m 122.15767,49.217407 c -0.59417,-0.59229 -0.66593,-0.838 -0.51656,-1.76907 0.10334,-0.64419 0.64966,-1.74646 1.35158,-2.72697 1.48047,-2.06807 4.41626,-4.89848 5.31377,-5.12301 1.47702,-0.36953 3.04688,1.27607 2.37263,2.48714 -0.14168,0.25447 -1.12234,1.30539 -2.17926,2.33538 -1.0569,1.02999 -2.23211,2.41445 -2.61155,3.07658 -1.45516,2.53927 -2.44899,2.99747 -3.73061,1.71995 z"
       id="path13585" /><path
       style="fill:#010101;stroke-width:0.267957;fill-opacity:1"
       d="m 97.015101,49.602427 c -0.27196,-0.15759 -0.97343,-1.32481 -1.55881,-2.59381 -0.58538,-1.26901 -1.72156,-3.29191 -2.52486,-4.49533 -0.8033,-1.20342 -1.46055,-2.44578 -1.46055,-2.7608 0,-0.73532 1.14958,-1.88607 1.88416,-1.88607 0.9841,0 1.52656,0.47623 2.93721,2.57859 1.76772,2.63451 3.49861,6.2541 3.49861,7.3162 0,0.52526 -0.24222,1.07213 -0.65876,1.48735 -0.70798,0.70571 -1.33026,0.80974 -2.117,0.35387 z"
       id="path13583" /><path
       style="fill:#010101;stroke-width:0.267957;fill-opacity:1"
       d="m 214.9287,49.905217 c -0.62704,-0.62503 -0.68337,-1.54016 -0.17015,-2.76451 0.59613,-1.42219 3.21712,-5.29594 4.51016,-6.66588 0.99064,-1.04956 1.36411,-1.27076 2.14553,-1.27076 0.95429,0 1.58499,0.46606 1.92687,1.4239 0.21991,0.61609 -0.14599,1.30341 -1.60237,3.01007 -0.63709,0.74656 -1.84037,2.49219 -2.67397,3.87917 -0.8336,1.38697 -1.65233,2.61022 -1.81941,2.71833 -0.57823,0.37413 -1.78217,0.20248 -2.31666,-0.33032 z"
       id="path13581" /><path
       id="path13577"
       style="fill:#1987cc;fill-opacity:1;stroke-width:0.267957"
       d="m 305.96131,37.362368 c -2.61881,0.01808 -3.92072,0.492293 -5.64152,2.055172 -2.27663,2.067697 -3.02051,5.107586 -1.81849,7.430554 1.07138,2.070528 3.12631,3.567101 6.36808,4.63796 1.25045,0.413029 4.76825,0.36293 5.83944,-0.0832 2.60675,-1.085698 3.7857,-3.12062 3.8039,-6.564457 0.0144,-2.724517 -0.49187,-3.890411 -2.42517,-5.586739 -1.56924,-1.376898 -3.29351,-1.90879 -6.12624,-1.88929 z m 0.54053,5.497855 c 0.68081,0.0013 1.34434,0.282274 1.96061,0.838192 0.65304,0.58908 0.63459,1.86438 -0.032,2.22002 -0.57312,0.305769 -0.61028,0.306401 -1.76217,0.02687 -2.64728,-0.642419 -3.26872,-1.875957 -1.40353,-2.784326 0.41435,-0.201795 0.82865,-0.301542 1.23713,-0.300757 z" /><path
       style="fill:#1c87ca;stroke-width:0.267957;fill-opacity:1"
       d="m 155.74946,92.602927 c -1.34541,-0.59071 -6.98236,-7.61857 -11.71619,-14.60717 -1.24586,-1.83926 -3.63804,-5.51109 -5.31596,-8.15963 -8.69179,-13.71963 -9.40393,-14.95852 -9.40393,-16.35995 0,-2.9249 4.15035,-4.5859 6.08279,-2.43436 0.47615,0.53013 2.25598,3.31393 4.36746,6.83107 0.37828,0.63012 1.12284,1.83399 1.65457,2.67529 0.53173,0.84129 1.91178,3.03445 3.06676,4.87373 2.00235,3.18861 6.57532,10.13031 7.82814,11.88298 2.1575,3.01825 4.30486,5.64932 4.66564,5.71658 0.99132,0.18484 6.73991,-8.29993 15.27729,-22.54885 5.98681,-9.99201 5.59139,-9.415 6.88454,-10.04618 1.66401,-0.81218 3.60633,-0.20655 4.62937,1.44345 0.94,1.5161 0.75391,2.32168 -1.31601,5.69702 -1.03331,1.68494 -1.87872,3.12122 -1.87872,3.19171 0,0.0705 -0.39251,0.70296 -0.87225,1.40547 -0.47974,0.70249 -1.29498,2.02295 -1.81161,2.93434 -0.51665,0.91139 -1.44132,2.47061 -2.05482,3.46491 -0.61351,0.99432 -1.57971,2.57017 -2.14709,3.50191 -2.53897,4.1693 -8.65683,13.05714 -11.16471,16.21974 -3.64203,4.59282 -4.66471,5.24458 -6.77527,4.31794 z"
       id="path13575" /><path
       id="path13567"
       style="fill:#1c87ca;fill-opacity:1;stroke-width:0.267957"
       d="M 422.40522 25.722461 C 421.28957 25.727207 420.10723 26.187557 418.53724 27.119792 C 414.68965 29.404483 412.84866 32.769087 411.23846 40.457996 C 410.76498 42.718957 410.84698 51.310477 411.37127 54.369808 C 411.59822 55.694075 411.97743 57.921033 412.21412 59.31886 C 412.63842 61.824541 413.23545 64.09702 414.85065 69.351322 C 415.30294 70.822729 415.66472 72.293834 415.65422 72.620374 C 415.61484 73.834788 411.9735 78.118407 409.07994 80.354268 C 407.33976 81.698925 403.80871 83.462066 401.62096 84.079106 C 399.27853 84.739773 393.53997 84.894878 391.42417 84.354541 C 387.6927 83.401614 383.42965 80.207789 385.04781 79.577572 C 385.62539 79.352622 390.36314 75.896816 393.1667 73.655452 C 401.26989 67.177083 404.32384 63.927644 405.34735 60.695003 C 406.01848 58.575299 406.04971 57.727838 405.52098 55.953174 C 404.81765 53.59233 402.73062 51.493154 400.10323 50.503377 C 390.11989 46.742529 374.66518 54.038127 371.59282 63.961987 C 370.51629 67.439198 370.96106 72.63506 372.65632 76.385518 C 373.40464 78.041035 373.40858 78.077619 372.90592 78.578666 C 371.48992 79.990153 364.8752 82.494355 360.86066 83.138595 C 357.89092 83.615172 354.41662 82.7672 352.72576 81.153186 C 351.55029 80.031119 350.55842 78.610577 350.69849 78.249487 C 350.77042 78.064057 351.59941 77.50763 352.54024 77.01287 C 358.71842 73.763932 364.04651 68.885711 364.04651 66.47863 C 364.04651 63.931806 360.93636 61.06916 356.47488 59.509546 C 354.97783 58.986176 354.24947 58.919468 350.0236 58.921468 C 346.61973 58.923028 345.25955 58.836234 345.25955 58.617094 C 345.25955 58.448404 345.43196 57.724743 345.64247 57.008923 C 347.72751 49.919494 348.12622 48.076749 348.70378 42.866117 C 348.94928 40.651216 348.57854 36.494477 347.94 34.304883 C 347.41218 32.494979 345.84285 29.963881 344.65028 28.999264 C 342.49467 27.255727 340.79705 26.581436 338.51991 26.563236 C 336.61668 26.548029 336.38417 26.610482 335.11081 27.476359 C 331.92916 29.639863 328.76074 35.502033 327.51644 41.528215 C 326.37618 47.050314 326.40345 56.67776 327.58362 65.204806 C 328.08318 68.814114 328.25907 69.90016 328.76184 72.484981 C 328.9372 73.386448 328.84923 73.608512 327.80893 74.892586 C 325.96726 77.16584 322.04656 80.829679 320.63779 81.593986 C 318.70947 82.640093 316.94745 82.969128 315.46912 82.558268 C 313.71089 82.069651 311.76104 80.029147 310.77431 77.644873 C 309.8838 75.493029 309.82767 74.31052 310.25135 66.676034 C 310.80271 56.739471 309.88858 53.813776 306.24384 53.847876 C 304.61099 53.863166 303.60899 54.472 303.15307 55.726314 C 302.98457 56.189874 302.84605 58.404807 302.83475 60.809208 C 302.82389 63.153012 302.72151 66.876535 302.60737 69.083639 C 302.4118 72.864847 302.34203 73.238864 301.39711 75.557145 C 299.50441 80.200743 296.37865 82.71429 291.42356 83.577327 C 289.44127 83.922587 288.67515 83.939917 286.94166 83.679647 C 281.14461 82.80925 280.84837 80.440771 285.40067 71.357918 C 288.836 64.503619 289.01137 63.965185 289.02267 60.255237 C 289.03187 57.224636 288.98832 56.956277 288.23874 55.45708 C 286.49532 51.970072 282.98476 49.232743 278.89202 48.168636 C 276.89887 47.650429 272.87417 47.591454 271.185 48.055981 C 266.37028 49.380078 262.11803 53.473328 259.76192 59.051693 C 258.69868 61.569074 258.3226 63.612289 258.3093 66.943717 C 258.28726 72.447632 257.8217 77.116003 257.07268 79.341927 C 255.76082 83.240425 254.32878 84.228468 249.72894 84.407768 C 246.915 84.517458 241.99839 83.999022 240.55483 83.440385 C 240.12518 83.274125 239.62748 82.709539 239.27997 81.993962 C 238.53121 80.452305 238.51223 76.698545 239.23088 72.428137 C 239.51564 70.736023 240.00255 66.401622 240.31298 62.796684 C 240.62343 59.191743 240.96352 55.76089 241.06901 55.172343 L 241.26073 54.102124 L 243.80992 54.046313 C 247.52559 53.965056 255.16907 53.449959 257.49539 53.123889 C 259.92518 52.783322 260.75299 52.246924 261.38198 50.60518 C 261.97047 49.069183 261.67253 47.779448 260.46214 46.623511 L 259.65702 45.855082 L 254.08165 46.233354 C 251.0151 46.441371 246.9966 46.611625 245.15144 46.611625 L 241.79661 46.611625 L 241.83743 45.541406 C 242.20374 35.930869 242.24615 28.777356 241.9413 28.043766 C 241.20813 26.279302 238.20619 25.51443 236.57057 26.675374 C 235.24458 27.616531 234.95282 28.662925 234.95362 32.472953 C 234.95461 37.096491 234.42501 45.746985 234.12163 46.063855 C 233.96716 46.225225 233.06434 46.191511 231.6639 45.971871 C 227.90793 45.382834 226.68489 45.320988 225.82187 45.677315 C 224.61493 46.175655 223.85547 47.401385 223.83337 48.886422 C 223.79921 51.176193 224.71041 52.02809 227.84036 52.63193 C 228.72603 52.802797 229.95719 53.052938 230.57611 53.187968 C 231.19502 53.322988 232.05597 53.433431 232.48917 53.433431 C 233.9496 53.433431 233.98502 53.692946 233.33873 59.643388 C 232.38885 68.388611 232.31264 69.159264 231.99359 73.230672 C 231.24637 82.765675 232.84365 87.335628 237.7829 89.794519 C 239.83954 90.818376 241.94597 91.135241 246.76168 91.145341 C 257.21399 91.166671 261.19538 89.016305 263.39891 82.159326 C 264.19059 79.695785 264.32823 78.661671 265.02207 69.978158 C 265.6524 62.089749 267.41426 57.918432 270.93747 55.974878 C 272.29802 55.224341 272.57528 55.173061 275.21059 55.179061 C 277.70102 55.185011 278.16755 55.262644 279.22275 55.847754 C 280.84021 56.744641 281.47818 57.903677 281.48618 59.960681 C 281.49442 62.062655 280.63333 65.450106 279.35297 68.353967 C 279.11104 68.902647 278.81246 69.592413 278.68945 69.88669 C 278.56643 70.18097 278.20386 71.023747 277.88381 71.759444 C 275.06647 78.235746 274.58883 79.793038 274.7269 82.048222 C 274.86277 84.266736 275.49692 85.58284 277.26628 87.318184 C 278.90699 88.927331 281.71169 90.148026 284.91439 90.646663 C 287.45293 91.041893 293.6087 90.803894 295.74215 90.228084 C 298.93691 89.365847 301.56589 87.855815 303.78818 85.606661 L 305.83973 83.530302 L 306.69549 84.59742 C 310.23548 89.010078 314.74782 90.819147 319.36655 89.67773 C 322.96202 88.789203 325.55938 87.351696 329.10394 84.288395 C 330.1821 83.356628 331.22812 82.593925 331.42887 82.593925 C 331.62961 82.593925 332.24354 83.395625 332.79312 84.375212 C 335.74096 89.629604 337.36657 91.15516 340.01749 91.15516 C 341.40917 91.15516 341.64299 91.068511 342.4685 90.245654 C 343.3177 89.399197 343.38029 89.217912 343.37129 87.637028 C 343.36608 86.702681 343.18497 85.155919 342.96873 84.199512 C 342.75248 83.243085 342.38399 81.437017 342.14966 80.18632 C 341.91534 78.935623 341.55498 77.310361 341.34867 76.574654 C 340.60753 73.931563 340.37117 72.331898 340.48671 70.739351 C 340.59614 69.231487 340.68244 69.050689 341.74348 68.112122 C 342.4221 67.511822 343.49936 66.914816 344.40688 66.635726 C 347.1154 65.802859 353.90653 66.089359 354.50963 67.062056 C 354.7502 67.450106 351.36366 69.589538 347.28526 71.625602 C 342.73932 73.895126 342.19572 74.404282 342.21942 76.373116 C 342.23815 77.93925 343.52276 81.17234 345.10193 83.627454 C 348.55911 89.002226 354.48303 91.446265 361.35727 90.334538 C 365.13454 89.723668 370.2786 87.916705 375.11147 85.502791 C 376.25218 84.933024 377.37489 84.466679 377.60589 84.466679 C 377.83691 84.466679 378.59419 84.991362 379.28899 85.632499 C 381.95894 88.096083 385.80318 90.264227 389.06049 91.143274 C 393.52764 92.348811 396.74551 92.415862 401.91655 91.411475 C 407.5651 90.314358 412.7729 87.378548 417.29081 82.74482 C 417.94551 82.073333 418.65652 81.524223 418.87056 81.524223 C 419.08456 81.524223 419.64218 82.216056 420.10976 83.062113 C 421.60884 85.774677 421.87327 86.205255 422.87341 87.555379 C 424.1801 89.319303 425.73746 90.79099 426.66543 91.13914 C 428.44779 91.807837 430.56566 91.189432 431.29254 89.788318 C 431.87174 88.671871 431.67411 85.854256 430.72203 81.657548 C 429.18404 74.878139 428.93887 73.53894 428.90147 71.714486 C 428.86941 70.149259 428.96502 69.658134 429.4234 69.039197 C 430.13066 68.08425 431.46572 67.171101 432.72191 66.783004 C 435.0405 66.066664 442.32403 66.281056 442.81948 67.080143 C 443.21951 67.725323 439.67334 69.935798 434.05103 72.545959 C 431.44958 73.753676 430.60731 74.696606 430.60731 76.39482 C 430.60796 77.188367 430.81463 77.986933 431.17265 78.58125 C 432.13649 80.181214 440.23845 87.961487 442.95229 89.893221 C 447.53023 93.151822 451.70291 94.953422 457.84751 96.323836 L 457.84802 96.323836 C 459.07517 96.597516 464.40191 96.460698 465.89921 96.117131 C 470.67979 95.020204 473.15345 93.82784 477.03755 90.747949 C 480.85037 87.724588 485.35745 81.019895 485.35745 78.371444 C 485.35745 76.52032 483.34644 74.568058 481.43935 74.568058 C 480.15493 74.568058 479.3729 75.382607 477.6649 78.498568 C 472.97856 87.048121 465.28697 90.797785 456.64034 88.748071 C 452.91774 87.865594 449.30628 85.915565 445.23381 82.589274 C 442.74098 80.55322 440.13605 77.800689 440.4341 77.517749 C 440.56458 77.393899 441.27476 76.961784 442.01281 76.557084 C 447.76367 73.403853 452.34603 68.962673 452.34603 66.542192 C 452.34603 65.365765 451.21892 63.500338 449.80717 62.340381 C 445.36811 58.693043 438.18408 57.93937 430.13705 60.276424 C 429.6305 60.423554 429.53467 60.349748 429.53967 59.818571 C 429.54318 59.470341 429.67155 58.703863 429.82544 58.115316 C 430.82211 54.304028 431.41336 49.274602 431.41036 44.60658 C 431.40648 35.694207 429.20874 29.143652 425.42416 26.762191 C 424.32215 26.068746 423.38964 25.718273 422.40522 25.722461 z M 421.44094 34.012911 C 421.79427 34.012911 422.63944 35.829107 423.05945 37.490735 C 423.58985 39.589133 423.50371 48.006048 422.91424 51.669714 C 422.36016 55.113631 421.53538 58.935434 421.03993 60.354972 C 420.42359 62.120991 420.08794 61.940031 419.32376 59.428414 C 418.84408 57.851835 417.94499 51.928938 417.67528 48.567061 C 417.28708 43.727756 417.8589 39.164012 419.17131 36.625155 C 419.63923 35.720036 421.12239 34.012911 421.44094 34.012911 z M 338.94675 34.078023 C 338.96193 34.078389 338.97737 34.079381 338.99274 34.081124 C 339.15675 34.099718 339.33338 34.19509 339.55292 34.338472 C 340.58431 35.012122 341.02082 35.844163 341.482 38.017834 C 341.83456 39.679461 341.85234 40.441725 341.5962 42.803589 C 341.0087 48.220531 338.65871 56.155633 335.95055 61.864958 C 335.47946 62.858155 334.99981 63.670532 334.88499 63.670532 C 334.58639 63.670532 334.37029 62.078139 334.07418 57.698804 C 333.54495 49.871298 334.76138 41.337419 337.0554 36.783801 C 338.09059 34.7289 338.47633 34.066695 338.94675 34.078023 z M 395.02292 56.059627 C 395.70375 56.057217 396.30945 56.123301 396.80937 56.265299 C 398.06291 56.621349 398.15701 56.707907 398.23151 57.582015 C 398.29429 58.318983 398.10627 58.779463 397.34784 59.749841 C 395.86914 61.641737 388.54149 67.789482 383.40244 71.449386 C 381.93297 72.495904 380.51216 73.352112 380.24501 73.352112 C 379.57678 73.352112 378.82583 72.022931 378.42186 70.125435 C 377.58054 66.173683 379.85814 62.119529 384.49798 59.311625 C 387.71676 57.363693 392.07263 56.070074 395.02292 56.059627 z " /><path
       style="fill:#1c87ca;stroke-width:0.267957;fill-opacity:1"
       d="m 181.78295,96.595387 c -1.47613,-0.18418 -3.04618,-0.41825 -3.48902,-0.52014 -0.44284,-0.10189 -1.28825,-0.29166 -1.87871,-0.42172 -2.68195,-0.59076 -4.59639,-1.13961 -4.97755,-1.42702 -2.01696,-1.52086 -1.6677,-4.97572 0.62088,-6.14178 l 1.01105,-0.51515 4.19966,0.86134 c 9.7903,2.00799 14.61402,2.0851 22.49559,0.35961 7.99638,-1.75062 14.91177,-6.44958 17.55154,-11.92614 1.37452,-2.85159 1.78133,-5.04394 1.37439,-7.40681 -1.35597,-7.87346 -10.45675,-13.96914 -19.42626,-13.01166 -3.18921,0.34044 -5.53836,2.64858 -5.53836,5.44162 0,1.0516 0.13859,1.33516 1.14103,2.33439 2.05739,2.05082 6.20988,2.89462 14.157,2.87676 5.29421,-0.0119 5.97926,0.12201 6.7688,1.32317 0.77605,1.18059 0.83682,2.26224 0.20071,3.57208 -0.76396,1.57306 -1.55334,2.05997 -3.72218,2.29586 -2.26482,0.24635 -9.22079,-0.1923 -11.8357,-0.74635 -1.1071,-0.23458 -2.496,-0.5253 -3.08645,-0.64605 -2.49373,-0.50998 -5.95333,-2.11599 -7.79021,-3.61636 -3.57895,-2.92331 -4.27935,-7.75908 -1.82933,-12.63038 2.89253,-5.75116 10.77649,-8.73987 18.8231,-7.13558 8.06897,1.60873 15.68264,7.99092 18.49741,15.50553 0.56097,1.4976 1.13905,4.80598 1.14527,6.55445 0.0376,10.59366 -9.71464,20.41347 -23.77015,23.93464 -2.05601,0.51507 -4.88464,1.05684 -6.28584,1.20391 -3.41405,0.35837 -11.04051,0.29557 -14.35667,-0.11822 z"
       id="path13565" /><path
       style="fill:#1c87ca;stroke-width:0.267957;fill-opacity:1"
       d="m 119.91984,97.082477 c -7.67129,-0.73279 -12.10123,-1.85587 -17.31093,-4.38865 -6.149029,-2.98947 -11.235249,-7.87682 -13.670099,-13.13563 -1.32426,-2.86013 -1.76211,-4.84496 -1.76211,-7.98787 0,-2.40506 0.11142,-3.06846 0.91979,-5.47654 1.18573,-3.53217 2.73169,-6.10296 5.31292,-8.83492 2.37223,-2.51075 5.09696,-4.48484 8.309769,-6.02054 8.11809,-3.88035 19.33105,-2.1341 23.30966,3.63016 2.26218,3.27745 2.56956,8.15907 0.74328,11.80417 -1.221,2.437 -5.195,5.15316 -8.93872,6.10947 -5.26522,1.34498 -11.96801,2.00193 -15.54268,1.52336 -1.895749,-0.25379 -2.225569,-0.38615 -3.076939,-1.2348 -0.87715,-0.87435 -0.95435,-1.07918 -0.96309,-2.55498 -0.009,-1.46052 0.0691,-1.68277 0.86619,-2.47792 l 0.87568,-0.8735 5.435549,-0.17922 c 10.79757,-0.35602 15.49482,-1.87531 15.49036,-5.01024 -0.002,-1.68015 -1.74481,-3.79562 -4.15862,-5.04898 -1.03711,-0.53853 -5.38991,-0.75445 -7.4534,-0.36973 -3.71423,0.69249 -8.507609,4.01962 -10.988459,7.62719 -2.18485,3.17711 -3.18574,6.80684 -2.63977,9.57308 1.07526,5.448 4.89821,9.38744 12.359079,12.73562 2.69978,1.21158 3.70385,1.5432 6.9965,2.31079 7.0925,1.65342 12.82213,1.58169 21.18408,-0.26518 5.31555,-1.17404 5.83979,-1.16988 7.06953,0.0559 1.39913,1.39465 1.45913,3.69214 0.13319,5.09905 -0.74621,0.79176 -4.58236,1.89892 -9.48401,2.73721 -3.38172,0.57834 -10.21041,0.92074 -13.01675,0.65267 z"
       id="path13563" /><path
       style="fill:#010101;stroke-width:0.267957;fill-opacity:1"
       d="m 335.98171,101.68484 c -0.47688,-0.57278 -0.12682,-1.32618 1.25721,-2.705813 1.6935,-1.68808 2.35349,-2.08078 3.15855,-1.87937 1.20741,0.30207 0.87187,1.27669 -1.1096,3.222883 -1.81647,1.78412 -2.66414,2.1334 -3.30616,1.3623 z"
       id="path13561" /><path
       style="fill:#010101;stroke-width:0.267957;fill-opacity:1"
       d="m 299.6005,101.52515 c -0.22544,-0.708 0.3919,-1.687672 1.97556,-3.135093 1.39626,-1.27611 2.26935,-1.62051 2.86304,-1.12936 0.68593,0.56746 0.45399,1.06259 -1.38945,2.965943 -1.3655,1.40989 -1.96428,1.84666 -2.53159,1.84666 -0.51323,0 -0.797,-0.16951 -0.91756,-0.54815 z"
       id="path13559" /><path
       style="fill:#1c87ca;stroke-width:0.267957;fill-opacity:1"
       d="m 13.370391,108.25195 c -4.0031236,-0.91944 -7.2041122,-3.4537 -9.8448352,-7.79425 -1.30057,-2.137733 -1.54695,-2.667223 -3.33821001,-7.173943 -0.13772004,-0.34647 -0.32321004,-1.32446 -0.41222004,-2.17331 -0.15528,-1.48086 -0.12511,-1.58239 0.74512001,-2.50772 1.21283004,-1.28965 2.71974404,-1.63432 4.21931404,-0.96508 1.260059,0.56234 1.654393,1.11823 2.459437,3.46702 0.847729,2.47334 2.4662596,5.82431 3.4627842,7.16926 3.666871,4.948983 9.845809,3.084283 14.910971,-4.49984 2.51222,-3.76158 4.221799,-7.53563 6.359624,-14.0394 0.435294,-1.32426 1.030981,-3.13587 1.323748,-4.02579 0.497658,-1.51274 2.140509,-7.75237 2.673273,-10.15323 1.613228,-7.26993 2.225058,-10.46727 3.071605,-16.05175 0.379188,-2.50139 0.800735,-5.21012 0.936772,-6.01939 0.136036,-0.80928 0.316293,-2.25394 0.400569,-3.21035 0.08427,-0.95642 0.387901,-4.32728 0.674722,-7.4908 0.945333,-10.42671 1.064402,-12.10561 1.366093,-19.26209 0.164375,-3.8992307 0.275645,-7.0073207 0.547208,-7.5525807 0.72061,-1.44689 2.168861,-1.81092 2.991793,-1.81092 1.11318,0 2.710152,0.91216 3.612207,2.06322 3.153904,4.0245297 7.751289,12.7379707 10.627148,20.1416707 1.805509,4.64816 5.011728,14.32283 5.01137,15.12166 -6.6e-5,0.14369 0.412471,1.7661 0.916744,3.60536 1.296269,4.72792 3.232904,13.08355 3.906435,16.85432 0.118269,0.66214 0.463168,2.46796 0.766444,4.01294 0.303275,1.54498 0.683217,3.77216 0.844315,4.94928 0.1611,1.17713 0.359845,2.44121 0.441654,2.80906 l 0.148745,0.66882 0.345171,-0.66882 c 0.189843,-0.36785 0.431694,-1.27076 0.537446,-2.00647 0.105752,-0.7357 0.367894,-1.99978 0.582538,-2.80905 0.214642,-0.80928 0.626738,-2.61509 0.915759,-4.01294 0.698916,-3.38025 2.529045,-11.161 3.521332,-14.97087 0.439177,-1.68621 0.896997,-3.55223 1.017378,-4.1467 0.12038,-0.59447 0.423426,-1.80319 0.673435,-2.68604 0.250008,-0.88284 0.669008,-2.44788 0.931109,-3.47787 0.48421,-1.90281 1.498373,-5.49589 2.982688,-10.56739 0.452184,-1.54498 1.043302,-3.65176 1.313599,-4.68175 0.270299,-1.02999 0.730635,-2.53484 1.022985,-3.34411 0.29234,-0.80928 0.66863,-1.95297 0.83621,-2.54153 0.37768,-1.32648 4.54296,-14.1852807 4.90773,-15.1508407 0.70261,-1.8598499 2.93697,-2.80254992 5.01906,-2.1175899 1.16276,0.3825299 2.18604,1.6955999 2.18604,2.8051699 0,0.41403 -0.61326,2.57357 -1.3628,4.79897 -4.01008,11.9060107 -6.71939,20.9774707 -10.47695,35.0795307 -0.31365,1.17713 -0.73667,2.74217 -0.94005,3.47788 -0.63759,2.30643 -2.014967,7.92878 -2.523283,10.29986 -0.268125,1.2507 -0.857132,3.83904 -1.3089,5.75187 -0.45177,1.91283 -0.950719,4.07982 -1.10878,4.81552 -0.158058,0.7357 -0.395546,1.8192 -0.527747,2.40776 -0.537892,2.39469 -1.068945,4.89757 -1.333939,6.28693 -0.154357,0.80928 -0.467109,2.37433 -0.695009,3.47788 -0.227898,1.10356 -0.716314,3.6317 -1.08537,5.6181 -0.740356,3.98489 -1.109938,5.94325 -1.464151,7.75834 -0.129214,0.66213 -0.532316,2.96388 -0.895774,5.11497 -0.897037,5.308973 -1.097142,5.956183 -2.102117,6.799113 -0.750718,0.62968 -1.030186,0.70247 -2.295417,0.59787 -1.215579,-0.1005 -1.591553,-0.26952 -2.406761,-1.08213 -1.18658,-1.18277 -1.360578,-2.15518 -1.398958,-7.818183 -0.02517,-3.71304 -0.593226,-12.31795 -0.93604,-14.17902 -0.08131,-0.44142 -0.452465,-3.08997 -0.824782,-5.88565 -0.720298,-5.4086 -0.881725,-6.39157 -1.911153,-11.6375 -0.981107,-4.99971 -1.150048,-5.79139 -1.826829,-8.56093 -0.341585,-1.39784 -0.772743,-3.26385 -0.958129,-4.14669 -0.185386,-0.88285 -0.488369,-2.08673 -0.673301,-2.6753 -0.184928,-0.58856 -0.599622,-2.1536 -0.921532,-3.47787 -1.502844,-6.18233 -5.29504,-17.49375 -7.30974,-21.8036 -0.309523,-0.66214 -0.849821,-1.84511 -1.200667,-2.62881 -0.368034,-0.82213 -0.777424,-1.37884 -0.967712,-1.31597 -0.22237,0.0735 -0.434375,1.45275 -0.650791,4.23398 -0.176542,2.26876 -0.451316,5.26871 -0.610614,6.66655 -1.212554,10.64012 -1.618819,13.88632 -2.167919,17.3225 -0.288039,1.80247 -0.766516,4.81217 -1.063282,6.68822 -0.296765,1.87605 -0.710993,4.25371 -0.920509,5.2837 -0.209516,1.02998 -0.641305,3.25716 -0.959533,4.94928 -1.067953,5.67866 -3.929048,16.13527 -5.087415,18.59326 -0.138683,0.29428 -0.573642,1.31758 -0.966573,2.274 -2.459838,5.98738 -7.213612,13.393003 -10.486889,16.336903 -3.659973,3.29169 -6.699447,4.76824 -10.159449,4.93537 -1.1809,0.057 -2.569801,0.007 -3.086445,-0.11205 z"
       id="path13557" /><path
       style="fill:#010101;stroke-width:0.267957;fill-opacity:1"
       d="m 343.74622,117.9815 c -0.28145,-0.33803 -0.19503,-0.99063 0.48713,-3.67852 2.0864,-8.22112 3.01257,-10.62462 4.09405,-10.62462 0.57772,0 1.0841,0.90024 0.92148,1.63827 -0.20651,0.93716 -0.0237,0.95849 1.07257,0.1251 1.39804,-1.06294 2.76324,-1.49584 4.71722,-1.49584 1.5515,0 1.94401,0.0995 2.6163,0.66341 0.43499,0.36487 0.94385,1.03145 1.13079,1.48127 0.51699,1.24417 0.19563,5.05875 -0.63762,7.56788 -0.38137,1.14837 -0.82314,2.56827 -0.98173,3.15534 -0.3372,1.24824 -1.20682,1.8089 -2.08176,1.34216 -0.62575,-0.33382 -0.62563,-0.33466 0.51773,-4.04397 0.43086,-1.39782 0.85688,-3.46305 0.94671,-4.58934 0.15718,-1.97071 0.13593,-2.07514 -0.56448,-2.77333 -0.6398,-0.63776 -0.86348,-0.70413 -1.84942,-0.54887 -1.84916,0.29122 -3.70166,1.75661 -5.43,4.29535 -0.96061,1.41101 -1.31878,2.18295 -2.11112,4.55 -0.39355,1.17572 -0.89436,2.4097 -1.1129,2.74218 -0.45941,0.69886 -1.24157,0.78614 -1.73495,0.19353 z"
       id="path13555" /><path
       id="path13551"
       style="fill:#010101;fill-opacity:1;stroke-width:0.267957"
       d="m 337.29672,103.44129 c -1.72135,0.002 -3.05764,0.15068 -3.8685,0.43925 -6.36665,2.26576 -10.0968,11.2851 -5.62705,13.60588 1.83716,0.95389 5.21917,-0.0263 7.58249,-2.19779 0.65492,-0.60174 1.25398,-1.094 1.33118,-1.094 0.0772,0 0.22193,0.64948 0.32143,1.44384 0.22729,1.81353 0.89144,2.53758 1.90583,2.07688 0.66658,-0.30275 0.67726,-0.35206 0.50022,-2.2996 -0.23469,-2.58177 0.2838,-5.90576 1.28933,-8.26565 0.4594,-1.07814 0.74478,-2.17438 0.69608,-2.67477 -0.0804,-0.826 -0.12084,-0.85074 -1.55856,-0.94464 -0.9284,-0.0607 -1.79002,-0.0903 -2.57245,-0.0894 z m -0.68988,2.00711 c 1.05348,-0.0106 1.97404,0.3592 1.97404,0.85989 0,0.69 -1.74005,3.9089 -3.05563,5.65341 -1.22749,1.62771 -1.65223,1.99535 -3.5109,3.03599 -1.34892,0.75521 -2.83038,0.70337 -3.43131,-0.12041 -0.25831,-0.35413 -0.46922,-1.06076 -0.46922,-1.56993 0,-1.15902 1.32692,-3.72499 2.63343,-5.09168 1.1247,-1.17649 3.64751,-2.47999 5.26531,-2.72076 0.1992,-0.0297 0.39919,-0.0445 0.59428,-0.0465 z" /><path
       style="fill:#010101;stroke-width:0.267957;fill-opacity:1"
       d="m 305.75614,118.08626 c -0.30701,-0.1485 -0.77493,-0.6357 -1.03978,-1.08267 -0.606,-1.02259 -0.45196,-2.51843 0.63749,-6.19074 l 0.78034,-2.63029 -0.79698,-0.27696 c -1.25304,-0.43541 -0.97129,-1.46068 0.70872,-2.57893 1.14842,-0.76441 1.44301,-1.15016 2.04284,-2.67528 2.10162,-5.343513 3.10499,-6.776773 4.14294,-5.918103 0.5371,0.44433 0.48822,1.15507 -0.17032,2.47691 -0.88986,1.786153 -1.86947,4.463773 -1.65185,4.515053 0.30661,0.0721 3.26926,0.19908 4.69949,0.2012 0.90573,10e-4 1.32642,0.12277 1.43909,0.41547 0.0875,0.22748 -0.0397,1.78415 -0.28296,3.45928 -0.49788,3.4294 -0.26774,6.16728 0.62043,7.3809 0.69072,0.94382 1.06556,0.92352 2.5082,-0.13597 2.32534,-1.70769 4.83155,-5.46267 6.21247,-9.30779 0.57382,-1.59795 0.62957,-1.6587 1.52152,-1.6587 1.26265,0 1.30309,0.58754 0.23271,3.38144 -2.1167,5.52495 -6.59021,10.50756 -9.75296,10.86291 -0.92272,0.10368 -1.26503,0.003 -1.9496,-0.57072 -1.6604,-1.39267 -2.3827,-4.77796 -1.93952,-9.09018 0.14923,-1.45192 0.22314,-2.68787 0.16428,-2.74653 -0.20066,-0.20005 -4.19538,0.4986 -4.59024,0.80277 -0.34863,0.26859 -0.97242,2.09074 -2.21013,6.45631 -0.20859,0.73569 -0.34597,1.63861 -0.30524,2.00646 0.0637,0.57544 0.22391,0.67878 1.14756,0.74013 2.02219,0.13433 2.32332,0.27858 2.23112,1.06884 -0.0522,0.44771 -0.33786,0.84753 -0.75499,1.05682 -0.79442,0.39862 -2.85499,0.42031 -3.64463,0.0383 z"
       id="path13549" /><path
       style="fill:#010101;stroke-width:0.267957;fill-opacity:1"
       d="m 298.54016,118.03096 c -0.42929,-0.31287 -0.4749,-0.61037 -0.33857,-2.2071 0.13601,-1.59293 1.37283,-6.83157 1.93198,-8.18306 0.12604,-0.30462 0.004,-0.56542 -0.37225,-0.80006 -0.56547,-0.35199 -0.72337,-1.15299 -0.34445,-1.7473 0.3425,-0.53722 2.70973,-1.45977 3.2815,-1.27887 0.63848,0.202 0.68206,0.99667 0.15114,2.75648 -0.20811,0.68979 -0.76492,2.51637 -1.23743,4.05911 -0.49624,1.62025 -0.92,3.69104 -1.00332,4.90293 -0.18259,2.6553 -0.81122,3.41439 -2.0686,2.49787 z"
       id="path13547" /><path
       id="path13543"
       style="fill:#010101;fill-opacity:1;stroke-width:0.267957"
       d="m 274.13947,103.56194 c -1.50661,0.0206 -3.60019,0.47877 -4.96662,1.14515 -1.97583,0.96362 -4.13617,3.21726 -5.29219,5.52059 -0.79825,1.59051 -0.94699,2.16486 -0.94619,3.65663 0.001,2.08408 0.53793,3.17121 1.91048,3.87056 v 5.2e-4 c 1.93843,0.9877 5.22088,-0.036 7.78608,-2.42776 l 1.30638,-1.21802 v 0.98186 c 0,1.18052 0.62992,2.78683 1.17461,2.99517 0.21656,0.0828 0.64519,0.0166 0.9524,-0.14728 0.51999,-0.2774 0.54655,-0.45167 0.38705,-2.52026 -0.18679,-2.42239 0.27023,-5.20152 1.30328,-7.92407 0.30708,-0.8093 0.57048,-1.9534 0.58498,-2.54196 l 0.0264,-1.0697 -1.07383,-0.005 c -0.59045,-0.003 -1.51483,-0.10443 -2.05414,-0.22583 -0.301,-0.0678 -0.67679,-0.0962 -1.09864,-0.0904 z m -0.22118,1.87895 c 0.41834,-4.1e-4 0.80794,0.0616 1.15446,0.19327 0.64111,0.24364 0.71905,0.38528 0.56482,1.02268 -0.62015,2.56353 -3.49539,6.59153 -5.67562,7.95094 -1.12298,0.70014 -1.8203,0.94877 -2.66341,0.94877 -1.01008,0 -1.19306,-0.098 -1.58026,-0.84439 -0.54829,-1.05685 -0.37865,-2.23547 0.59841,-4.16047 1.41579,-2.7893 5.04508,-5.10825 7.6016,-5.1108 z" /><path
       style="fill:#010101;stroke-width:0.267957;fill-opacity:1"
       d="m 256.93119,118.06946 c -0.9202,-0.52604 -1.19036,-1.10026 -1.1992,-2.54868 -0.0173,-2.84286 4.66615,-17.266363 6.05665,-18.652423 0.60699,-0.60504 1.41923,-0.50482 1.74861,0.21578 0.23319,0.51019 0.16277,0.87624 -0.37317,1.93958 -0.59399,1.178433 -2.41862,6.485673 -4.35964,12.680653 -0.39187,1.2507 -0.67173,2.69535 -0.6219,3.21035 0.0896,0.92555 0.10656,0.93727 1.47777,1.01646 0.77283,0.0446 1.52553,0.24627 1.69958,0.45533 0.4393,0.52763 0.11202,1.33413 -0.68906,1.69796 -0.8655,0.39308 -3.04105,0.38437 -3.73964,-0.015 z"
       id="path13541" /><path
       id="path13537"
       style="fill:#010101;fill-opacity:1;stroke-width:0.267957"
       d="m 249.86505,95.68059 c -0.6706,0.01041 -1.39381,0.164472 -2.01021,0.464054 -2.26366,1.100179 -4.70279,4.194336 -7.48947,9.500716 -1.05474,2.00839 -1.35284,2.35508 -2.759,3.21014 -0.86709,0.52725 -1.7074,1.16929 -1.86759,1.42679 -0.40174,0.6457 0.0954,1.38069 1.00769,1.48931 0.39104,0.0465 0.70835,0.16709 0.70435,0.26769 -0.004,0.10059 -0.30609,1.08132 -0.67128,2.17971 -0.75027,2.2566 -0.79893,2.71033 -0.34158,3.16621 0.50448,0.50288 1.23985,0.37822 1.65365,-0.2806 0.20793,-0.33106 0.69913,-1.56534 1.0914,-2.74247 1.11259,-3.33869 1.76554,-4.4864 2.83704,-4.98574 1.18571,-0.55253 7.42443,-1.9236 7.77369,-1.70843 0.31028,0.19115 0.20125,0.86258 -0.82321,5.07515 -0.42754,1.75803 -0.77773,3.44966 -0.77773,3.75894 0,0.67799 0.47977,1.20406 1.09709,1.20406 0.79226,0 1.18994,-1.1676 2.86959,-8.42687 l 0.49506,-2.14044 1.8619,-0.13385 c 2.08466,-0.14976 2.53318,-0.3388 2.53318,-1.0697 0,-0.709 -0.43896,-0.91497 -2.28099,-1.06918 l -1.61024,-0.13488 -5.2e-4,-3.21014 c -5.6e-4,-3.389443 -0.22777,-4.225044 -1.44797,-5.325773 -0.39228,-0.353881 -1.08484,-0.526498 -1.84485,-0.514697 z m -0.0326,2.044836 c 0.51881,0.0029 0.94346,0.310185 1.07952,0.850594 0.24876,0.987933 0.009,5.68445 -0.30592,5.99808 -0.15418,0.15346 -1.62629,0.52076 -3.27112,0.81598 -1.64483,0.29522 -3.30004,0.65401 -3.67833,0.79736 -1.23205,0.46692 -0.8467,-0.68645 1.33842,-4.00647 1.18715,-1.80371 3.02556,-3.720832 4.08968,-4.264341 0.25627,-0.130887 0.51193,-0.192519 0.74775,-0.191203 z" /><path
       style="fill:#010101;stroke-width:0.267957;fill-opacity:1"
       d="m 355.73358,127.08507 c -1.22837,-1.22444 -0.0914,-1.99763 3.36866,-2.29081 4.13488,-0.35036 6.25457,-1.30619 8.40403,-3.78964 0.96155,-1.11093 2.28147,-3.38891 2.28147,-3.9374 0,-0.15019 -0.69443,0.0492 -1.54321,0.44286 -2.06628,0.95859 -5.51347,1.06043 -6.67341,0.19716 -2.01979,-1.50318 -2.43651,-3.59059 -1.4637,-7.33165 1.26889,-4.87943 2.45266,-6.98111 3.66987,-6.51551 0.47967,0.18348 0.74596,1.10712 0.43339,1.50331 -0.54684,0.69321 -2.20614,6.61344 -2.20614,7.87134 0,1.08863 0.12831,1.43491 0.75273,2.03122 1.99303,1.90334 7.02543,-0.18025 8.7298,-3.61442 0.38723,-0.78021 1.00862,-2.67023 1.38093,-4.20004 0.37227,-1.52983 0.81252,-2.94438 0.97827,-3.14348 0.16578,-0.19908 0.6656,-0.36199 1.11075,-0.36199 h 0.80936 l -0.17378,1.69073 c -0.0955,0.9299 -0.52592,2.82603 -0.95633,4.2136 -0.43045,1.38755 -0.92397,3.06459 -1.09675,3.72673 -0.55874,2.14114 -2.43943,6.24437 -3.62463,7.90805 -1.37739,1.93346 -3.02797,3.3353 -5.14607,4.37053 -2.23951,1.09458 -3.12225,1.31481 -6.01589,1.50081 -2.17971,0.14012 -2.64881,0.0979 -3.01935,-0.2714 z"
       id="path13535" /><path
       id="path13531"
       style="fill:#010101;fill-opacity:1;stroke-width:0.267957"
       d="m 284.3511,103.50874 c -0.88421,0 -0.94696,0.0694 -1.6924,1.87276 -0.97937,2.36926 -3.04582,9.37657 -4.47363,15.16807 -1.0703,4.34126 -1.29118,5.82223 -0.92242,6.1898 0.24888,0.24819 1.22504,0.21575 1.65313,-0.0548 0.19575,-0.12372 0.57487,-1.17532 0.84232,-2.33681 0.44773,-1.94458 1.5231,-6.19352 1.7725,-7.00319 0.0835,-0.27112 0.27471,-0.25709 0.90279,0.0667 1.15181,0.59372 3.9849,0.52593 5.97586,-0.14262 6.47989,-2.17595 10.13263,-10.23415 5.93401,-13.09068 -0.87134,-0.59274 -1.26089,-0.66921 -3.42925,-0.66921 -2.14498,0 -2.6217,0.0908 -3.86902,0.73587 -0.78238,0.40464 -1.46371,0.73588 -1.51411,0.73588 -0.0504,0 -0.13004,-0.33124 -0.17674,-0.73588 -0.0742,-0.64281 -0.20084,-0.73587 -1.00304,-0.73587 z m 6.8895,1.80093 c 1.91414,0 2.72601,0.80693 2.66961,2.65306 -0.0716,2.33588 -2.04429,4.91488 -4.79196,6.26422 -1.09483,0.53766 -1.84886,0.67815 -4.09587,0.76275 -1.5148,0.0572 -2.72267,0.0336 -2.68407,-0.0527 0.0387,-0.0863 0.48294,-1.17424 0.98753,-2.41743 1.05212,-2.59226 1.55097,-3.4061 3.08302,-5.0307 1.36368,-1.44609 2.98851,-2.17919 4.83174,-2.17919 z" /><path
       style="fill:#bb1d34;stroke-width:0.267957;fill-opacity:1"
       d="m 149.66461,127.62336 c -3.48934,-0.58538 -7.12879,-2.0629 -10.31849,-4.18897 -1.77839,-1.18539 -6.54868,-4.81003 -8.72613,-6.63042 -7.37274,-6.16375 -16.18208,-9.87311 -26.40075,-11.11659 -5.309119,-0.64605 -11.112159,-0.74975 -16.225089,-0.28994 -6.291254,0.5658 -5.211834,0.90709 -7.151374,-0.48831 -0.64613,-0.46486 -0.912379,-1.08755 -0.911511,-2.20711 0.0011,-1.42486 0.645386,-2.745122 1.664381,-3.410643 1.260815,-0.82348 13.433914,-1.42944 19.805513,-0.9859 5.62985,0.3919 7.30842,0.64298 12.00018,1.794973 4.13713,1.01579 7.17779,2.13774 10.94689,4.03919 3.71078,1.87204 5.04679,2.82098 13.15424,9.34318 7.81116,6.28386 12.47191,8.08042 19.04898,7.34269 5.56042,-0.62369 10.03185,-2.61958 18.65603,-8.32742 7.40897,-4.90356 8.46403,-5.57962 9.03689,-5.79064 0.26996,-0.0993 0.91355,-0.43883 1.43019,-0.75415 0.51664,-0.31536 1.4475,-0.77258 2.06858,-1.01607 0.62107,-0.24349 1.64764,-0.68475 2.28128,-0.98058 4.65376,-2.1728 13.15026,-4.207922 20.74428,-4.968803 5.31241,-0.53228 20.20095,-0.53725 21.47366,-0.007 2.28857,0.953151 2.78685,4.897743 0.78397,6.205893 -0.6407,0.41845 -1.45546,0.45913 -7.99648,0.39921 -11.2045,-0.10263 -18.70274,0.72195 -26.21262,2.88268 -7.01958,2.01967 -10.49828,3.77057 -19.76365,9.94756 -2.33678,1.55787 -4.85254,3.20576 -5.5906,3.662 -1.78976,1.10631 -7.40696,3.79983 -7.93084,3.80293 -0.22879,9.9e-4 -0.53073,0.10495 -0.67096,0.23021 -0.41784,0.37322 -3.28944,1.06681 -6.2248,1.50349 -3.24353,0.48252 -6.1307,0.48532 -8.97177,0.009 z"
       id="path439" /><path
       style="fill:#1b84c6;fill-opacity:1;stroke-width:1.2849;paint-order:stroke fill markers"
       d=""
       id="path4767"
       transform="scale(0.26458333)" /><path
       style="fill:#1c87cb;fill-opacity:1;stroke-width:0.0212477;paint-order:stroke fill markers"
       d="m 994.76082,-24.453474 c -0.0467,-0.0042 -0.20296,-0.02723 -0.34734,-0.05109 -1.61076,-0.266184 -2.90087,-1.341565 -4.51469,-3.763248 -0.45884,-0.688555 -0.87625,-1.374924 -1.55853,-2.562821 -0.60629,-1.055597 -0.89146,-1.491562 -1.23521,-1.888339 -0.12634,-0.145838 -0.28697,-0.26902 -0.35076,-0.26902 -0.2124,0 -1.1241,0.668581 -2.47332,1.813785 -0.30337,0.257492 -0.62317,0.527021 -0.71067,0.59895 l -0.15912,0.130784 -0.005,-5.27404 -0.005,-5.27404 0.17749,-0.235273 c 0.34313,-0.454875 0.4953,-0.729845 0.55673,-1.005943 0.0541,-0.242978 0.0311,-0.504825 -0.10617,-1.212864 -0.18672,-0.962694 -0.34396,-1.835711 -0.49102,-2.726036 l -0.13666,-0.827357 -1.3e-4,-2.497873 -1.3e-4,-2.497871 17.37331,-1.43e-4 17.3733,-1.43e-4 0.1365,0.175051 c 0.4985,0.639131 0.88,1.420966 1.0121,2.073728 0.058,0.288718 0.078,0.708472 0.043,0.926703 -0.1291,0.802955 -0.7154,1.798624 -1.7768,3.017549 -0.3607,0.414205 -1.3637,1.414378 -1.8623,1.85692 -2.2021,1.954779 -4.7435,3.708164 -7.6265,5.261914 -0.7283,0.392472 -1.0312,0.568936 -1.4228,0.82872 -0.3744,0.24842 -0.6247,0.465775 -0.6455,0.560549 -0.1076,0.490119 1.4871,2.543122 2.5903,3.334544 1.2352,0.886129 2.9679,1.456166 4.9619,1.632331 0.3848,0.034 1.4467,0.03401 1.8138,2.1e-5 2.0562,-0.190397 5.4551,-1.138238 8.6024,-2.398856 2.1961,-0.879633 3.6796,-1.67433 4.3096,-2.308629 0.226,-0.227531 0.2851,-0.326195 0.2986,-0.498486 0.018,-0.232402 -0.067,-0.482309 -0.4751,-1.401524 -0.403,-0.906722 -0.6107,-1.447139 -0.8348,-2.172309 -0.4875,-1.577782 -0.7746,-3.173621 -0.8939,-4.969375 -0.038,-0.574296 -0.032,-1.923748 0.011,-2.482072 0.095,-1.226886 0.2793,-2.23634 0.5773,-3.165583 0.042,-0.13162 0.083,-0.246494 0.092,-0.255273 0.01,-0.0088 1.9073,-0.01355 4.2202,-0.01061 l 4.2052,0.0053 -0.1731,0.233357 c -1.5944,2.149314 -2.2094,4.574037 -1.7459,6.884038 0.2795,1.393571 0.794,2.593816 1.3201,3.079575 0.1916,0.176948 0.3229,0.239697 0.5023,0.240115 0.1344,2.64e-4 0.169,-0.0094 0.3607,-0.101645 1.1782,-0.566883 3.4865,-2.179749 6.7195,-4.695204 l 0.525,-0.408521 v 4.490928 4.490929 l -0.2063,0.147238 c -1.2746,0.909723 -2.0459,1.427808 -2.4034,1.614297 -0.2026,0.105683 -0.2474,0.138631 -0.3004,0.22084 -0.058,0.09038 -0.062,0.107593 -0.054,0.26634 0.01,0.136292 0.022,0.197705 0.076,0.311857 0.2888,0.602874 1.275,1.461542 2.5898,2.25485 l 0.288,0.173752 0.01,3.948891 0.01,3.948893 -0.1963,-0.07147 c -1.3354,-0.486209 -3.1239,-1.373878 -4.5134,-2.240127 -1.3259,-0.826574 -2.4791,-1.690086 -3.5852,-2.68447 -0.7818,-0.702794 -1.4506,-1.181235 -1.7184,-1.229154 -0.214,-0.03831 -1.1138,0.33137 -2.7413,1.126332 -1.8234,0.890587 -3.2423,1.522446 -4.8534,2.161143 -3.7613,1.491154 -7.178,2.438175 -9.8328,2.725369 -1.1808,0.127736 -2.5751,0.139391 -3.7443,0.0313 -2.8454,-0.263049 -5.5168,-1.271251 -7.6845,-2.900214 -1.6192,-1.216697 -2.9178,-2.682018 -4.032,-4.549482 -1.28104,-2.147054 -2.2527,-4.56067 -2.50027,-6.210829 -0.0409,-0.27219 -0.0348,-1.042299 0.0103,-1.307986 0.13832,-0.815348 0.54372,-1.344218 1.54154,-2.011021 0.66445,-0.444032 1.35333,-0.820097 3.48973,-1.905048 1.635,-0.830315 2.3331,-1.201211 3.3837,-1.797939 2.339,-1.328414 3.8398,-2.391365 3.8398,-2.719517 0,-0.07419 -0.1477,-0.207123 -0.3336,-0.300188 -0.5954,-0.298032 -1.7326,-0.501309 -3.485,-0.622948 -0.5325,-0.03696 -2.8913,-0.03698 -3.3836,-2.1e-5 -1.2947,0.09718 -2.162,0.225144 -2.83216,0.417882 -0.68855,0.198041 -1.58337,0.637472 -2.23811,1.099103 -0.26654,0.187918 -0.35862,0.262488 -0.69554,0.563306 -0.62481,0.557824 -0.85529,0.890913 -0.95636,1.382133 -0.14052,0.682885 -0.19212,2.005248 -0.11094,2.842715 0.10578,1.091052 0.34459,2.259534 0.81513,3.988285 0.27111,0.99601 0.50752,2.059373 0.86299,3.881977 0.3012,1.544214 0.48889,2.468726 0.68948,3.395617 0.0923,0.426479 0.19671,0.946759 0.23206,1.156179 0.2781,1.647047 0.35359,3.524155 0.16859,4.191733 -0.10035,0.362132 -0.29151,0.627682 -0.83867,1.164992 -0.80365,0.789186 -1.02772,0.872847 -2.31693,0.865008 -0.32256,-0.0019 -0.62466,-0.007 -0.67133,-0.01127 z"
       id="path7673" /><path
       style="fill:#1c87cb;fill-opacity:1;stroke-width:0.169982;paint-order:stroke fill markers"
       d="m 1111.5731,-19.719453 c -5.8491,-1.534666 -10.8492,-3.971325 -14.6124,-7.120919 -2.2068,-1.846948 -7.1112,-6.484271 -8.6699,-8.197742 -1.8274,-2.008862 -2.208,-2.701758 -2.2144,-4.03112 -0.01,-1.93027 0.5964,-2.499516 4.9982,-4.697627 5.1127,-2.553187 7.3951,-4.05212 7.1485,-4.694793 -0.1987,-0.517599 -1.7065,-0.712832 -5.5053,-0.712832 -2.9892,0 -3.8214,0.05341 -4.603,0.295439 -1.1584,0.358658 -2.7963,1.423635 -3.3736,2.193581 -0.4082,0.544391 -0.4239,0.659111 -0.4155,3.026693 0.01,2.260248 0.068,2.723726 0.7315,5.68543 1.5125,6.748523 1.5716,7.082525 1.6649,9.419143 0.088,2.204103 0.076,2.313707 -0.3096,2.885143 -0.8032,1.189313 -2.9742,1.739734 -4.4423,1.126292 -1.4372,-0.600499 -3.8703,-3.4524 -5.7332,-6.719893 -0.5965,-1.04643 -1.2794,-2.136087 -1.5175,-2.421467 -0.396,-0.474752 -0.4681,-0.500239 -0.8485,-0.299754 -0.2287,0.120513 -1.0649,0.844624 -1.8584,1.609132 -2.8716,2.766981 -5.2242,4.441796 -8.328,5.928471 -2.3372,1.11954 -3.9625,1.662174 -6.7765,2.262458 -1.9083,0.407085 -2.4794,0.453043 -5.6855,0.457533 -3.2807,0.0046 -3.7123,-0.0307 -5.4308,-0.444206 -1.0268,-0.247057 -2.0769,-0.530672 -2.3336,-0.630254 l -0.4667,-0.181054 v -3.822774 c 0,-2.102522 0.032,-3.822771 0.071,-3.822771 0.039,0 0.4597,0.195249 0.9348,0.433885 1.5302,0.768577 2.7704,1.105545 4.7402,1.287888 2.2044,0.204068 6.2978,-0.03472 7.9459,-0.463523 2.2764,-0.592257 5.7379,-2.277073 7.6842,-3.740113 2.1789,-1.637866 5.4544,-5.219507 6.3135,-6.903474 0.4745,-0.930016 0.392,-1.469052 -0.8748,-5.719233 -1.3662,-4.583997 -1.8952,-6.807542 -2.6647,-11.201144 l -0.639,-3.648858 v -6.109713 -6.109713 l 0.4708,-1.866858 c 1.6853,-6.683129 3.4941,-9.706123 7.0227,-11.736727 3.0114,-1.732914 4.4878,-1.776852 6.8437,-0.203665 2.9966,2.001078 4.9456,6.612051 5.6156,13.285565 0.4115,4.098023 0.013,11.232409 -0.8662,15.484565 -0.1896,0.918014 -0.4683,2.264667 -0.6193,2.992557 -0.3752,1.808649 -0.3554,1.820952 2.0235,1.256797 3.261,-0.773319 4.0227,-0.864952 7.1727,-0.862849 2.5067,0.0016 3.3341,0.06669 4.6115,0.36235 3.9576,0.916048 7.0337,2.926014 8.2959,5.420667 0.9854,1.947571 0.4953,3.199659 -2.382,6.085453 -1.9628,1.968656 -3.7361,3.33093 -6.2826,4.826381 -2.8527,1.675313 -2.8328,1.659409 -2.6094,2.085459 0.3305,0.630291 3.3628,3.641543 4.9854,4.950839 4.0846,3.295792 7.9719,5.291433 11.9706,6.145408 2.1055,0.449659 5.697,0.412522 7.6835,-0.07945 5.4374,-1.346565 9.3826,-4.682212 12.9852,-10.979065 1.3503,-2.360129 2.2765,-3.307292 3.2356,-3.308795 1.2954,-0.0021 3.0231,1.174097 3.6043,2.453653 0.4509,0.992519 0.3888,1.858476 -0.2436,3.400857 -1.4927,3.640478 -5.2464,8.364264 -8.715,10.967407 -2.81,2.108814 -5.2636,3.298444 -8.7339,4.234577 -1.7943,0.484034 -2.1809,0.526074 -5.4941,0.597522 -3.5308,0.07614 -3.5821,0.07212 -5.4987,-0.43076 z m -34.6349,-36.126166 c 0.4652,-1.506323 1.6187,-7.323436 1.891,-9.536581 0.1348,-1.09588 0.2191,-3.74234 0.2188,-6.873427 0,-4.388903 -0.043,-5.243645 -0.3071,-6.194573 -0.4638,-1.668698 -1.2514,-3.22457 -1.6323,-3.22457 -0.4778,0 -1.831,1.624663 -2.4928,2.992855 -1.0522,2.175394 -1.3208,3.944946 -1.323,8.717428 0,3.439819 0.064,4.612363 0.3823,6.788574 0.8254,5.649044 1.4043,8.168587 2.0406,8.881012 0.2677,0.29964 0.2877,0.297582 0.5766,-0.05921 0.1647,-0.203306 0.4553,-0.874485 0.6459,-1.491508 z"
       id="path7675" /><path
       style="fill:#1c87cb;fill-opacity:1;stroke-width:0.169982;paint-order:stroke fill markers"
       d="m 1042.9915,-42.245358 v -4.397158 l 2.079,-1.687899 c 4.6691,-3.790746 7.5946,-6.574258 8.1585,-7.762573 0.9358,-1.972157 -0.5619,-3.03838 -3.8887,-2.768439 -4.5385,0.36825 -9.5555,2.55165 -12.6775,5.517171 l -1.263,1.199769 h -4.0959 c -2.2527,0 -4.0958,-0.03988 -4.0958,-0.08862 0,-0.349832 1.5249,-2.997557 2.3799,-4.132165 4.5494,-6.03754 14.3376,-10.33835 21.6883,-9.529506 3.4916,0.384207 5.5152,1.239163 7.4273,3.137993 1.7468,1.734683 2.6124,3.83553 2.3833,5.784554 -0.1195,1.016508 -0.7907,2.996038 -1.3381,3.946231 -1.8039,3.131516 -7.1212,7.980907 -16.1209,14.702475 l -0.6364,0.475327 z"
       id="path7677" /><path
       style="fill:#1c87cb;fill-opacity:1;stroke-width:0.169982;paint-order:stroke fill markers"
       d="m 982.86971,-51.380773 c -0.56724,-4.530132 -0.69252,-6.644767 -0.7039,-11.879998 -0.0154,-7.090711 0.36232,-10.159502 1.77165,-14.392817 1.92318,-5.776854 5.35839,-10.445162 8.21555,-11.164604 0.48988,-0.123351 1.3104,-0.162567 2.10331,-0.10052 3.46755,0.27135 6.34808,2.328968 8.08478,5.77506 1.0421,2.068044 1.4385,3.967517 1.5643,7.496408 0.1522,4.269073 -0.4308,7.946233 -2.3219,14.642853 -0.8948,3.168709 -1.1365,4.230222 -0.9781,4.294958 0.023,0.0095 2.2572,0.07636 4.9641,0.148487 4.6277,0.123317 4.9927,0.156315 6.1097,0.552442 2.2479,0.79716 4.7832,2.281835 5.8423,3.421358 l 0.4115,0.442659 h -13.7569 -13.75685 l 0.56277,-1.060712 c 2.15519,-4.062201 4.99515,-13.107958 5.76778,-18.371574 0.54052,-3.682108 0.23212,-6.817421 -0.85267,-8.668461 -0.39262,-0.669952 -1.32477,-1.429536 -1.75432,-1.429536 -0.33462,0 -0.86228,0.715753 -1.64531,2.231853 -1.49252,2.889768 -2.54061,6.955927 -3.06507,11.891139 -0.40439,3.805455 -0.17145,13.370952 0.36788,15.106592 0.0839,0.26988 -0.17052,0.296982 -3.18611,0.339429 l -3.27726,0.04613 -0.0849,1.527429 -0.0848,1.527429 z"
       id="path7679" /><path
       style="fill:#1c87cb;fill-opacity:1;stroke-width:0.169982;paint-order:stroke fill markers"
       d="m 1046.7252,-69.565508 c -1.6568,-0.572016 -2.6805,-1.933321 -2.4948,-3.317539 0.049,-0.364265 0.8101,-2.166842 1.6917,-4.005726 0.8816,-1.838885 2.1633,-4.666958 2.8483,-6.28461 1.3864,-3.274177 2.1058,-4.313423 3.1849,-4.601009 1.0781,-0.287314 2.3952,0.18365 3.3725,1.205854 1.2074,1.262883 1.2398,2.457601 0.1484,5.457447 -1.5444,4.244538 -3.9741,9.229672 -5.092,10.447377 -0.7328,0.798256 -1.7731,1.373449 -2.471,1.366255 -0.2333,-0.0024 -0.7679,-0.123026 -1.188,-0.268049 z"
       id="path7681" /><path
       style="fill:#1c87cb;fill-opacity:1;stroke-width:0.0300487;paint-order:stroke fill markers"
       d="m 990.69463,-52.623682 c 0.3802,-0.713462 0.928,-1.839537 1.21147,-2.490443 1.45211,-3.334203 3.11396,-8.447958 4.08504,-12.570325 l 0.17489,-0.742538 h 3.59423 c 2.41664,0 3.59424,0.01 3.59424,0.03052 0,0.07025 -0.3471,1.749407 -0.4991,2.414609 -0.332,1.452631 -0.6939,2.85056 -1.3011,5.025255 -0.8018,2.871547 -1.0517,3.913952 -1.0001,4.171805 l 0.016,0.08274 0.3643,0.01744 c 0.4294,0.02056 0.6515,0.02721 4.1445,0.123989 3.9949,0.110684 4.7872,0.149681 5.5053,0.27096 0.7654,0.129268 1.9206,0.566661 3.2402,1.226868 1.7485,0.8748 3.089,1.805522 3.8713,2.687897 l 0.1851,0.208743 h -13.7153 -13.71532 z"
       id="path7683" /><path
       style="fill:#1c87cb;fill-opacity:1;stroke-width:0.0300487;paint-order:stroke fill markers"
       d="m 995.40408,-52.158563 c 13.33682,-0.02037 22.50112,-0.0204 22.50112,-9.5e-5 0,0.01238 -6.1799,0.01916 -13.7332,0.01508 -7.55325,-0.0041 -11.49882,-0.01082 -8.76792,-0.015 z"
       id="path7685" /><path
       style="fill:#1c87cb;fill-opacity:1;stroke-width:0.0300487;paint-order:stroke fill markers"
       d="m 990.29701,-52.128657 c 0.0485,-0.06188 0.14634,-0.210466 0.21736,-0.330197 0.071,-0.11973 0.13491,-0.211889 0.142,-0.204801 0.007,0.0071 -0.0423,0.119036 -0.10983,0.248769 -0.0675,0.129731 -0.12271,0.245517 -0.12271,0.257302 0,0.01177 6.19006,0.02143 13.75567,0.02143 7.5657,0 13.7557,-0.01064 13.7557,-0.0236 0,-0.06077 -0.868,-0.892569 -1.1956,-1.14578 -1.3865,-1.071491 -3.3622,-2.127401 -5.1352,-2.744536 -1.0151,-0.353351 -1.4892,-0.395701 -5.8798,-0.525243 l -1.7851,-0.05267 1.8151,-0.0038 c 2.5328,-0.0053 3.8651,0.05019 4.6262,0.192759 1.5776,0.295505 3.9776,1.357789 5.5593,2.460646 0.8447,0.588968 1.5565,1.223024 2.1273,1.89497 l 0.057,0.06728 h -13.9578 -13.95793 z"
       id="path7687" /><path
       style="fill:#1c87cb;fill-opacity:1;stroke-width:0.0300487;paint-order:stroke fill markers"
       d="m 1027.1259,-52.181158 c 0.053,-0.155311 0.064,-0.16972 0.079,-0.105006 0.017,0.06896 0.036,0.07679 0.2418,0.09724 0.1231,0.01222 1.9654,0.03025 4.094,0.04004 l 3.8702,0.01781 0.4099,-0.392552 c 0.2255,-0.215905 0.4192,-0.392554 0.4305,-0.392554 0.011,0 -0.052,0.08193 -0.1399,0.18206 -0.088,0.100131 -0.2643,0.305546 -0.3913,0.456475 l -0.2309,0.274418 -4.2123,0.0011 -4.2124,0.0011 z"
       id="path7689" /><path
       style="fill:#1c87ca;stroke-width:0.267957;fill-opacity:1"
       d="m 390.82839,46.380083 c -1.2425,-0.43924 -1.73301,-0.83303 -2.22933,-1.78976 -0.6199,-1.19489 -0.4632,-1.97787 0.94606,-4.72674 1.26,-2.45773 2.47372,-5.1564 3.9269,-8.73133 1.15693,-2.84606 2.52729,-3.7406 4.55046,-2.97041 1.59443,0.60698 2.53747,1.95423 2.53747,3.62516 0,1.64132 -3.57744,10.10292 -5.4533,12.89854 -1.14468,1.70594 -2.60725,2.28524 -4.27826,1.69454 z"
       id="path13595" /></g></svg>
